<svg width="205" height="126" viewBox="0 0 205 126" fill="none" xmlns="http://www.w3.org/2000/svg">
<path d="M113.738 86.3618C113.159 86.9992 112.58 87.676 112 88.3921C112.188 88.0627 112.368 87.7273 112.539 87.3857C113.664 85.1339 114.449 82.8442 114.893 80.5166C115.324 81.3544 115.793 82.2789 116.298 83.29C115.53 84.3139 114.677 85.3379 113.738 86.3618Z" fill="#F5951F"/>
<path d="M118.858 107.992C120.394 108.077 121.503 107.437 122.186 106.072C122.954 104.707 123.38 103 123.466 100.953C123.551 98.99 123.252 96.8996 122.57 94.6811C121.887 92.4626 120.906 90.5001 119.626 88.7936C117.834 90.4148 116.469 92.3346 115.53 94.5531C114.677 96.6862 114.208 98.7341 114.122 100.697C114.122 102.659 114.506 104.323 115.274 105.688C116.128 107.139 117.322 107.907 118.858 107.992Z" fill="#F5951F"/>
<path fill-rule="evenodd" clip-rule="evenodd" d="M68.4 46C68.9333 45.2 69.3333 44.2667 69.6 43.2C72 38.6667 73.2 34 73.2 29.2C73.2 24.1333 72.1333 19.7333 70 16C68.1333 12.2667 65.4667 9.2 62 6.8C59.0667 4.4 55.6 2.66667 51.6 1.6C48.1333 0.533333 44.5333 0 40.8 0C36.8 0 32.6667 0.4 28.4 1.2C24.1333 2 20.2667 3.2 16.8 4.8C12.8 6.66667 9.46667 8.8 6.8 11.2C2.26667 15.2 0 19.8667 0 25.2C0 29.4667 1.73333 33.2 5.2 36.4C5.46667 36.4 5.6 36.5333 5.6 36.8C6.93333 37.8667 8.4 38.6667 10 39.2C9.46667 42.6667 9.06667 46.1333 8.8 49.6C8.26667 56.8 8 63.6 8 70C8 73.4667 8.13333 77.3333 8.4 81.6V82C8.93333 86.5333 10 90.9333 11.6 95.2C13.7333 100.267 16.6667 104.533 20.4 108C25.2 112.267 31.2 114.4 38.4 114.4C43.2 114.4 47.8667 113.333 52.4 111.2C56.9333 109.333 60.8 106.667 64 103.2L64.8 102.4C67.2 103.733 69.8667 104.4 72.8 104.4C76.5333 104.4 80 103.467 83.2 101.6C84.5333 103.2 86.1333 104.533 88 105.6C90.4 106.933 93.4667 107.867 96.4 108.4C97.7333 112.667 100.133 116.267 103.6 119.2C107.067 122.667 111.333 124.667 116.4 125.2C121.2 125.733 125.733 125.2 130 123.6C134.8 121.2 138.8 117.2 141.2 112.4C142.533 109.733 143.467 107.067 144 104.4H145.6C148.267 104.4 150.933 104 153.6 103.2C156.533 105.867 160.133 107.2 164.4 107.2C168.667 107.2 172.133 106.267 174.8 104.4C178.267 107.867 182.667 109.6 188 109.6C191.467 109.6 194.533 108.8 197.2 107.2C199.6 105.6 201.467 103.6 202.8 101.2C203.867 99.0667 204.267 95.8667 204 93.2C204 91.0667 203.6 89.0667 202.8 87.2C201.733 85.0667 200.267 82.6667 198.4 81.6C196.533 80.5333 196 74 196 74C195.2 70.8 194.267 67.7333 193.2 64.8C192.133 61.0667 190.533 57.8667 188.4 55.2C185.2 50.9333 181.067 48.5333 176 48L174.4 46.4C171.467 42.9333 167.467 41.2 162.4 41.2C160.533 41.2 158.667 41.4667 156.8 42C157.067 40.4 157.067 38.1333 156.8 36.8C155.467 29.6 151.333 25.8667 144.4 25.6H141.2C134.533 25.6 129.867 28.4 127.2 34C126.133 36.1333 125.067 38.2667 124.8 41.2C121.867 40.6667 119.067 40.8 116.4 41.6C114 42.1333 111.733 43.0667 109.6 44.4C108 45.4667 106.533 46.6667 105.2 48C105.2 47.7333 105.067 47.6 104.8 47.6C102.133 44.4 98.9333 42.5333 95.2 42C93.0667 41.7333 90.9333 41.6 88.8 41.6C84 42.1333 80.4 44.2667 78 48C76.1333 46.9333 73.8667 46.2667 71.2 46H68.4ZM53.5965 77.6585C53.5965 74.9281 52.9992 72.7949 51.8047 71.259C50.6954 69.6378 49.2449 68.4006 47.453 67.5473C45.7465 66.6941 43.8693 66.0968 41.8215 65.7555C39.7737 65.3289 37.8538 65.0302 36.062 64.8596C34.3555 64.6036 32.9049 64.305 31.7103 63.9636C30.6011 63.6223 30.0465 63.0677 30.0465 62.2998C30.0465 61.4465 30.6011 60.3799 31.7103 59.1001C32.9049 57.8202 34.3555 56.3696 36.062 54.7484L41.5655 49.2449C43.528 47.1971 45.3625 45.0639 47.0691 42.8454C48.7756 40.6269 50.1835 38.3231 51.2927 35.934C52.4873 33.4595 53.0846 30.9424 53.0846 28.3826C53.0846 24.4576 51.8473 21.4285 49.3729 19.2954C46.8984 17.0769 43.784 15.9677 40.0297 15.9677C36.7873 15.9677 33.8435 16.437 31.1984 17.3756C28.5533 18.2288 26.2068 19.3381 24.159 20.7033C22.1112 21.9832 20.4046 23.3484 19.0394 24.7989C17.6742 26.1642 16.6503 27.3587 15.9677 28.3826C15.0291 28.3826 14.1332 28.0413 13.2799 27.3587C12.4266 26.5908 12 25.8655 12 25.1829C12 23.391 12.8959 21.6845 14.6878 20.0633C16.4796 18.4421 18.7408 17.0342 21.4712 15.8397C24.287 14.6451 27.4014 13.7065 30.8144 13.0239C34.2275 12.3413 37.5979 12 40.9256 12C43.4854 12 45.9598 12.384 48.3489 13.1519C50.8234 13.8345 52.9992 14.9011 54.8764 16.3516C56.8389 17.7169 58.3748 19.466 59.484 21.5992C60.6786 23.7324 61.2759 26.2068 61.2759 29.0226C61.2759 32.009 60.5506 34.9527 59.1001 37.8538C57.6495 40.6696 55.8577 43.4 53.7245 46.0451C51.6767 48.6903 49.4582 51.2074 47.0691 53.5965C44.6799 55.9856 42.5894 58.2468 40.7976 60.3799C43.3574 60.8066 45.9172 61.3612 48.4769 62.0438C51.1221 62.6411 53.5112 63.5797 55.6443 64.8596C57.7775 66.0541 59.484 67.6753 60.7639 69.7232C62.1291 71.771 62.8117 74.3734 62.8117 77.5305C62.8117 80.7729 62.1291 83.8873 60.7639 86.8737C59.484 89.8601 57.6922 92.5052 55.3884 94.8091C53.1699 97.1129 50.5674 98.9474 47.581 100.313C44.5946 101.678 41.4802 102.36 38.2378 102.36C34.1421 102.36 30.8571 101.251 28.3826 99.0327C25.9935 96.8996 24.159 94.2118 22.8791 90.9694C21.6845 87.727 20.8739 84.2286 20.4473 80.4743C20.106 76.7199 19.9353 73.2215 19.9353 69.9791C19.9353 63.8357 20.1913 57.4362 20.7033 50.7808C21.3006 44.04 22.1965 37.6405 23.391 31.5824C23.5617 30.7291 23.9883 30.1318 24.6709 29.7905C25.4389 29.4492 26.2495 29.3212 27.1027 29.4065C28.0413 29.4919 28.9372 29.7478 29.7905 30.1745C30.6438 30.6011 31.3264 31.1131 31.8383 31.7104C31.3264 32.2223 30.8571 33.8008 30.4305 36.446C30.0038 39.0911 29.6625 42.2055 29.4065 45.7892C29.1506 49.2875 28.9372 52.9992 28.7666 56.9242C28.5959 60.7639 28.5106 64.177 28.5106 67.1634C28.5106 67.7607 28.5533 68.9126 28.6386 70.6191C28.7239 72.3256 28.8519 74.2881 29.0226 76.5066C29.2786 78.7251 29.6199 81.0715 30.0465 83.546C30.5584 86.0205 31.1557 88.2816 31.8383 90.3294C32.6063 92.3773 33.5022 94.0838 34.5261 95.449C35.6354 96.7289 36.9579 97.3689 38.4938 97.3689C40.4563 97.2835 42.3335 96.6009 44.1253 95.321C45.9172 93.9558 47.4957 92.2919 48.8609 90.3294C50.3115 88.3669 51.4634 86.2764 52.3166 84.058C53.1699 81.7542 53.5965 79.621 53.5965 77.6585ZM111.92 73.8417C111.754 74.552 111.533 75.3976 111.259 76.3786C110.661 78.4264 109.851 80.5596 108.827 82.7781C107.888 84.9112 106.779 86.8311 105.499 88.5376C104.219 90.2441 102.854 91.0974 101.404 91.0974C100.209 91.0974 99.2277 90.4574 98.4598 89.1775C97.6918 87.8976 97.0519 86.2338 96.5399 84.186C96.1133 82.0528 95.772 79.7063 95.516 77.1465C95.3453 74.5014 95.2174 71.8563 95.132 69.2112C95.132 66.5661 95.1747 64.049 95.26 61.6598C95.4307 59.2707 95.644 57.2229 95.9 55.5164C95.0467 54.5778 94.1081 54.0232 93.0842 53.8525C92.0603 53.6818 90.9937 53.6392 89.8845 53.7245C88.6899 53.8098 87.8366 54.3218 87.3247 55.2604C86.8127 56.1136 86.4714 57.1802 86.3008 58.4601C86.1301 59.6547 86.0448 60.9772 86.0448 62.4278C86.0448 63.8783 85.9595 65.2009 85.7888 66.3954C85.6182 67.59 85.1915 69.3392 84.5089 71.643C83.8263 73.9468 82.9731 76.2506 81.9491 78.5544C80.9252 80.7729 79.816 82.7354 78.6214 84.4419C77.4268 86.0631 76.2323 86.8737 75.0377 86.8737C74.0138 86.8737 73.4165 85.8072 73.2459 83.674C73.0752 81.4555 73.0326 78.8957 73.1179 75.9946L73.3739 67.0354C73.4592 64.049 73.3312 61.7878 72.9899 60.252C72.6486 58.8867 71.838 58.1615 70.5581 58.0761C69.3635 57.9908 68.0836 58.2041 66.7184 58.7161C66.7184 59.5694 66.5904 60.9772 66.3344 62.9397C66.0785 64.9022 65.8652 67.1634 65.6945 69.7232C65.5238 72.1976 65.4385 74.8001 65.4385 77.5305C65.4385 80.1756 65.6518 82.6074 66.0785 84.8259C66.5904 86.9591 67.3584 88.7509 68.3823 90.2014C69.4915 91.652 71.0274 92.3773 72.9899 92.3773C74.4404 92.3773 75.8483 91.9933 77.2135 91.2254C78.5788 90.4574 79.816 89.5188 80.9252 88.4096C82.1198 87.215 83.1864 85.9351 84.125 84.5699C85.0635 83.2047 85.8315 81.9675 86.4288 80.8582C86.7701 82.8207 87.2394 84.7406 87.8366 86.6178C88.4339 88.4949 89.2445 90.1588 90.2684 91.6093C91.3777 93.0599 92.7002 94.2544 94.2361 95.193C95.772 96.0463 97.6918 96.4729 99.9956 96.4729C103.153 96.3023 105.712 95.3637 107.675 93.6572C108.507 92.929 109.269 92.1515 109.96 91.3247C109.632 91.8712 109.313 92.4354 109.003 93.0172C108.32 94.2118 107.851 95.4917 107.595 96.8569C106.998 99.3313 107.04 101.806 107.723 104.28C108.491 106.755 109.813 108.845 111.691 110.552C113.397 112.173 115.488 113.112 117.962 113.368C120.522 113.709 122.868 113.41 125.002 112.472C127.391 111.277 129.183 109.442 130.377 106.968C131.657 104.494 132.34 102.019 132.425 99.5447C132.596 96.5582 131.998 93.7425 130.633 91.0974C129.268 88.4523 127.86 85.8925 126.409 83.418C127.348 82.4794 128.671 81.3275 130.377 79.9623L134.446 76.6686C134.608 78.8171 134.909 80.8962 135.349 82.9061C136.031 85.5512 137.141 87.8123 138.676 89.6895C140.298 91.5667 142.644 92.5053 145.716 92.5053C148.19 92.5053 150.537 91.78 152.755 90.3294C154.754 88.9967 156.529 87.4069 158.078 85.5602C158.095 85.6994 158.113 85.8386 158.132 85.9778C158.473 88.4523 159.113 90.6281 160.052 92.5053C160.99 94.2971 162.483 95.193 164.531 95.193C166.238 95.193 167.432 94.937 168.115 94.4251C168.798 93.8278 169.181 93.1025 169.267 92.2493C169.352 91.3107 169.267 90.3294 169.011 89.3055C168.84 88.1963 168.755 87.087 168.755 85.9778C168.755 84.4419 168.712 82.5221 168.627 80.2183C168.542 77.9145 168.627 75.696 168.883 73.5628C169.139 71.3444 169.608 69.4672 170.291 67.9313C170.973 66.3954 172.083 65.6275 173.618 65.6275C174.728 65.6275 175.581 66.4381 176.178 68.0593C176.776 69.6805 177.245 71.6857 177.586 74.0748C178.013 76.3786 178.397 78.9384 178.738 81.7542C179.165 84.4846 179.719 87.0444 180.402 89.4335C181.084 91.8226 182.023 93.8278 183.218 95.449C184.412 96.9849 186.033 97.7528 188.081 97.7528C189.19 97.7528 190.044 97.5395 190.641 97.1129C191.238 96.7716 191.665 96.3449 191.921 95.833C192.177 95.2357 192.262 94.6384 192.177 94.0411C192.177 93.2541 191.408 92.8988 190.683 92.564C190.644 92.5458 190.605 92.5276 190.565 92.5094C190.548 92.5011 190.53 92.4927 190.512 92.4844C189.9 92.1974 189.346 91.607 188.849 90.7134C188.081 89.1775 187.356 87.215 186.673 84.8259C185.991 82.3514 185.265 79.7063 184.498 76.8906C183.815 73.9895 183.004 71.3017 182.066 68.8272C181.212 66.3528 180.146 64.305 178.866 62.6838C177.586 60.9772 176.008 60.124 174.13 60.124C172.936 60.124 171.741 60.5079 170.547 61.2759C169.437 61.9585 168.328 63.281 167.219 65.2435C167.219 64.1343 167.262 62.8971 167.347 61.5319C167.432 60.0813 167.347 58.7587 167.091 57.5642C166.835 56.3696 166.323 55.3884 165.555 54.6204C164.873 53.7672 163.763 53.3405 162.227 53.3405C161.289 53.3405 160.35 53.5539 159.412 53.9805C158.473 54.4071 158.004 55.175 158.004 56.2843L157.876 72.155C157.876 73.5405 157.837 75.4711 157.759 77.9466C157.428 78.4538 157.083 78.955 156.723 79.4503C155.358 81.3275 153.864 82.9487 152.243 84.3139C150.707 85.6792 149.172 86.3618 147.636 86.3618C146.27 86.3618 145.289 85.2099 144.692 82.9061C144.18 80.6022 143.839 77.9571 143.668 74.9707C143.583 71.899 143.625 68.8699 143.796 65.8835C143.967 62.8971 144.18 60.7639 144.436 59.484C144.18 58.6308 143.583 57.9482 142.644 57.4362C141.705 56.8389 140.724 56.5403 139.7 56.5403C138.42 56.5403 137.396 56.9242 136.629 57.6922C135.946 58.3748 135.434 59.228 135.093 60.252C134.751 61.2759 134.538 62.3851 134.453 63.5797C134.367 64.7742 134.325 65.7982 134.325 66.6514V69.6054C133.959 69.9193 133.532 70.2709 132.937 70.7471C131.316 72.1123 129.652 73.4349 127.945 74.7148L123.338 78.1705C121.631 74.7574 120.565 71.3444 120.138 67.9313C119.797 64.4329 120.394 61.0199 121.93 57.6922C122.442 57.8628 122.954 57.9055 123.466 57.8202C124.063 57.6495 124.532 57.4362 124.874 57.1802C125.3 56.8389 125.513 56.4549 125.513 56.0283C125.599 55.5164 125.385 55.0044 124.874 54.4924C124.106 53.7245 123.21 53.2552 122.186 53.0846C121.162 52.8286 120.138 52.8286 119.114 53.0846C118.09 53.3405 117.109 53.7672 116.17 54.3645C115.232 54.9617 114.464 55.6443 113.866 56.4123C112.587 58.3748 111.733 60.6786 111.307 63.3237C110.88 65.8835 110.837 68.3153 111.179 70.6191C111.264 71.3017 111.392 71.9843 111.563 72.6669C111.656 72.9944 111.775 73.386 111.92 73.8417ZM139.828 46.6851C138.378 46.6851 137.567 46.3438 137.396 45.6612C137.226 44.9786 137.141 44.04 137.141 42.8454C137.141 41.3949 137.396 40.1576 137.908 39.1337C138.42 38.0245 139.53 37.4699 141.236 37.4699C142.175 37.4699 142.985 37.5125 143.668 37.5979C144.351 37.5979 144.777 38.0672 144.948 39.0057C145.033 39.6883 144.991 40.499 144.82 41.4375C144.649 42.2908 144.351 43.1014 143.924 43.8693C143.497 44.6373 142.9 45.3199 142.132 45.9172C141.449 46.4291 140.682 46.6851 139.828 46.6851Z" fill="#F5951F"/>
<path d="M63.6207 110.535C64.4298 109.685 65.7748 109.652 66.625 110.461C68.7674 112.5 73.3414 114.978 80.0419 110.683C80.5872 110.334 81.262 110.252 81.875 110.461C82.488 110.67 82.9721 111.147 83.1899 111.757C83.6337 113 86 116.125 91.1641 114.975C92.3308 114.848 93.3797 115.69 93.507 116.857C93.6343 118.024 92.7917 119.073 91.625 119.2C86.125 120.625 82.375 118 80.4102 115.351C72.2743 119.363 66.4999 116.209 63.6952 113.54C62.845 112.731 62.8117 111.386 63.6207 110.535Z" fill="#F5951F"/>
<path d="M146.205 16.6349C145.037 16.5218 143.998 17.3772 143.885 18.5453C143.772 19.7135 144.627 20.7521 145.795 20.8651C148.102 21.0884 152.169 21.6427 155.305 23.686C158.394 25.6985 160.463 29.0831 161.016 33.5136C161.091 34.1073 161.412 34.6423 161.901 34.987C162.39 35.3317 163.002 35.4542 163.586 35.3244C166.098 34.7662 172.806 34.658 176.339 39.9575C176.99 40.934 178.309 41.1978 179.286 40.5468C180.262 39.8958 180.526 38.5765 179.875 37.6C175.849 31.5603 168.861 30.6956 164.845 30.8964C163.641 26.0672 161.013 22.3321 157.625 20.125C153.816 17.6433 149.064 16.9116 146.205 16.6349Z" fill="#F5951F"/>
</svg>
