<svg width="221" height="142" viewBox="0 0 221 142" fill="none" xmlns="http://www.w3.org/2000/svg">
<g filter="url(#filter0_d_320_50)">
<path d="M121.738 93.3618C121.159 93.9992 120.58 94.676 120 95.3921C120.188 95.0627 120.368 94.7273 120.539 94.3857C121.664 92.1339 122.449 89.8442 122.893 87.5166C123.324 88.3544 123.793 89.2789 124.298 90.29C123.53 91.3139 122.677 92.3379 121.738 93.3618Z" fill="white"/>
<path d="M126.858 114.992C128.394 115.077 129.503 114.437 130.186 113.072C130.954 111.707 131.38 110 131.466 107.953C131.551 105.99 131.252 103.9 130.57 101.681C129.887 99.4626 128.906 97.5001 127.626 95.7936C125.834 97.4148 124.469 99.3346 123.53 101.553C122.677 103.686 122.208 105.734 122.122 107.697C122.122 109.659 122.506 111.323 123.274 112.688C124.128 114.139 125.322 114.907 126.858 114.992Z" fill="white"/>
<path fill-rule="evenodd" clip-rule="evenodd" d="M76.4 53C76.9333 52.2 77.3333 51.2667 77.6 50.2C80 45.6667 81.2 41 81.2 36.2C81.2 31.1333 80.1333 26.7333 78 23C76.1333 19.2667 73.4667 16.2 70 13.8C67.0667 11.4 63.6 9.66667 59.6 8.6C56.1333 7.53333 52.5333 7 48.8 7C44.8 7 40.6667 7.4 36.4 8.2C32.1333 9 28.2667 10.2 24.8 11.8C20.8 13.6667 17.4667 15.8 14.8 18.2C10.2667 22.2 8 26.8667 8 32.2C8 36.4667 9.73333 40.2 13.2 43.4C13.4667 43.4 13.6 43.5333 13.6 43.8C14.9333 44.8667 16.4 45.6667 18 46.2C17.4667 49.6667 17.0667 53.1333 16.8 56.6C16.2667 63.8 16 70.6 16 77C16 80.4667 16.1333 84.3333 16.4 88.6V89C16.9333 93.5333 18 97.9333 19.6 102.2C21.7333 107.267 24.6667 111.533 28.4 115C33.2 119.267 39.2 121.4 46.4 121.4C51.2 121.4 55.8667 120.333 60.4 118.2C64.9333 116.333 68.8 113.667 72 110.2L72.8 109.4C75.2 110.733 77.8667 111.4 80.8 111.4C84.5333 111.4 88 110.467 91.2 108.6C92.5333 110.2 94.1333 111.533 96 112.6C98.4 113.933 101.467 114.867 104.4 115.4C105.733 119.667 108.133 123.267 111.6 126.2C115.067 129.667 119.333 131.667 124.4 132.2C129.2 132.733 133.733 132.2 138 130.6C142.8 128.2 146.8 124.2 149.2 119.4C150.533 116.733 151.467 114.067 152 111.4H153.6C156.267 111.4 158.933 111 161.6 110.2C164.533 112.867 168.133 114.2 172.4 114.2C176.667 114.2 180.133 113.267 182.8 111.4C186.267 114.867 190.667 116.6 196 116.6C199.467 116.6 202.533 115.8 205.2 114.2C207.6 112.6 209.467 110.6 210.8 108.2C211.867 106.067 212.267 102.867 212 100.2C212 98.0667 211.6 96.0667 210.8 94.2C209.733 92.0667 208.267 89.6667 206.4 88.6C204.533 87.5333 204 81 204 81C203.2 77.8 202.267 74.7333 201.2 71.8C200.133 68.0667 198.533 64.8667 196.4 62.2C193.2 57.9333 189.067 55.5333 184 55L182.4 53.4C179.467 49.9333 175.467 48.2 170.4 48.2C168.533 48.2 166.667 48.4667 164.8 49C165.067 47.4 165.067 45.1333 164.8 43.8C163.467 36.6 159.333 32.8667 152.4 32.6H149.2C142.533 32.6 137.867 35.4 135.2 41C134.133 43.1333 133.067 45.2667 132.8 48.2C129.867 47.6667 127.067 47.8 124.4 48.6C122 49.1333 119.733 50.0667 117.6 51.4C116 52.4667 114.533 53.6667 113.2 55C113.2 54.7333 113.067 54.6 112.8 54.6C110.133 51.4 106.933 49.5333 103.2 49C101.067 48.7333 98.9333 48.6 96.8 48.6C92 49.1333 88.4 51.2667 86 55C84.1333 53.9333 81.8667 53.2667 79.2 53H76.4ZM61.5965 84.6585C61.5965 81.9281 60.9992 79.7949 59.8047 78.259C58.6954 76.6378 57.2449 75.4006 55.453 74.5473C53.7465 73.6941 51.8693 73.0968 49.8215 72.7555C47.7737 72.3289 45.8538 72.0302 44.062 71.8596C42.3555 71.6036 40.9049 71.305 39.7103 70.9636C38.6011 70.6223 38.0465 70.0677 38.0465 69.2998C38.0465 68.4465 38.6011 67.3799 39.7103 66.1001C40.9049 64.8202 42.3555 63.3696 44.062 61.7484L49.5655 56.2449C51.528 54.1971 53.3625 52.0639 55.0691 49.8454C56.7756 47.6269 58.1835 45.3231 59.2927 42.934C60.4873 40.4595 61.0846 37.9424 61.0846 35.3826C61.0846 31.4576 59.8473 28.4285 57.3729 26.2954C54.8984 24.0769 51.784 22.9677 48.0297 22.9677C44.7873 22.9677 41.8435 23.437 39.1984 24.3756C36.5533 25.2288 34.2068 26.3381 32.159 27.7033C30.1112 28.9832 28.4046 30.3484 27.0394 31.7989C25.6742 33.1642 24.6503 34.3587 23.9677 35.3826C23.0291 35.3826 22.1332 35.0413 21.2799 34.3587C20.4266 33.5908 20 32.8655 20 32.1829C20 30.391 20.8959 28.6845 22.6878 27.0633C24.4796 25.4421 26.7408 24.0342 29.4712 22.8397C32.287 21.6451 35.4014 20.7065 38.8144 20.0239C42.2275 19.3413 45.5979 19 48.9256 19C51.4854 19 53.9598 19.384 56.3489 20.1519C58.8234 20.8345 60.9992 21.9011 62.8764 23.3516C64.8389 24.7169 66.3748 26.466 67.484 28.5992C68.6786 30.7324 69.2759 33.2068 69.2759 36.0226C69.2759 39.009 68.5506 41.9527 67.1001 44.8538C65.6495 47.6696 63.8577 50.4 61.7245 53.0451C59.6767 55.6903 57.4582 58.2074 55.0691 60.5965C52.6799 62.9856 50.5894 65.2468 48.7976 67.3799C51.3574 67.8066 53.9172 68.3612 56.4769 69.0438C59.1221 69.6411 61.5112 70.5797 63.6443 71.8596C65.7775 73.0541 67.484 74.6753 68.7639 76.7232C70.1291 78.771 70.8117 81.3734 70.8117 84.5305C70.8117 87.7729 70.1291 90.8873 68.7639 93.8737C67.484 96.8601 65.6922 99.5052 63.3884 101.809C61.1699 104.113 58.5674 105.947 55.581 107.313C52.5946 108.678 49.4802 109.36 46.2378 109.36C42.1421 109.36 38.8571 108.251 36.3826 106.033C33.9935 103.9 32.159 101.212 30.8791 97.9694C29.6845 94.727 28.8739 91.2286 28.4473 87.4743C28.106 83.7199 27.9353 80.2215 27.9353 76.9791C27.9353 70.8357 28.1913 64.4362 28.7033 57.7808C29.3006 51.04 30.1965 44.6405 31.391 38.5824C31.5617 37.7291 31.9883 37.1318 32.6709 36.7905C33.4389 36.4492 34.2495 36.3212 35.1027 36.4065C36.0413 36.4919 36.9372 36.7478 37.7905 37.1745C38.6438 37.6011 39.3264 38.1131 39.8383 38.7104C39.3264 39.2223 38.8571 40.8008 38.4305 43.446C38.0038 46.0911 37.6625 49.2055 37.4065 52.7892C37.1506 56.2875 36.9372 59.9992 36.7666 63.9242C36.5959 67.7639 36.5106 71.177 36.5106 74.1634C36.5106 74.7607 36.5533 75.9126 36.6386 77.6191C36.7239 79.3256 36.8519 81.2881 37.0226 83.5066C37.2786 85.7251 37.6199 88.0715 38.0465 90.546C38.5584 93.0205 39.1557 95.2816 39.8383 97.3294C40.6063 99.3773 41.5022 101.084 42.5261 102.449C43.6354 103.729 44.9579 104.369 46.4938 104.369C48.4563 104.284 50.3335 103.601 52.1253 102.321C53.9172 100.956 55.4957 99.2919 56.8609 97.3294C58.3115 95.3669 59.4634 93.2764 60.3166 91.058C61.1699 88.7542 61.5965 86.621 61.5965 84.6585ZM119.92 80.8417C119.754 81.552 119.533 82.3976 119.259 83.3786C118.661 85.4264 117.851 87.5596 116.827 89.7781C115.888 91.9112 114.779 93.8311 113.499 95.5376C112.219 97.2441 110.854 98.0974 109.404 98.0974C108.209 98.0974 107.228 97.4574 106.46 96.1775C105.692 94.8976 105.052 93.2338 104.54 91.186C104.113 89.0528 103.772 86.7063 103.516 84.1465C103.345 81.5014 103.217 78.8563 103.132 76.2112C103.132 73.5661 103.175 71.049 103.26 68.6598C103.431 66.2707 103.644 64.2229 103.9 62.5164C103.047 61.5778 102.108 61.0232 101.084 60.8525C100.06 60.6818 98.9937 60.6392 97.8845 60.7245C96.6899 60.8098 95.8366 61.3218 95.3247 62.2604C94.8127 63.1136 94.4714 64.1802 94.3008 65.4601C94.1301 66.6547 94.0448 67.9772 94.0448 69.4278C94.0448 70.8783 93.9595 72.2009 93.7888 73.3954C93.6182 74.59 93.1915 76.3392 92.5089 78.643C91.8263 80.9468 90.9731 83.2506 89.9491 85.5544C88.9252 87.7729 87.816 89.7354 86.6214 91.4419C85.4268 93.0631 84.2323 93.8737 83.0377 93.8737C82.0138 93.8737 81.4165 92.8072 81.2459 90.674C81.0752 88.4555 81.0326 85.8957 81.1179 82.9946L81.3739 74.0354C81.4592 71.049 81.3312 68.7878 80.9899 67.252C80.6486 65.8867 79.838 65.1615 78.5581 65.0761C77.3635 64.9908 76.0836 65.2041 74.7184 65.7161C74.7184 66.5694 74.5904 67.9772 74.3344 69.9397C74.0785 71.9022 73.8652 74.1634 73.6945 76.7232C73.5238 79.1976 73.4385 81.8001 73.4385 84.5305C73.4385 87.1756 73.6518 89.6074 74.0785 91.8259C74.5904 93.9591 75.3584 95.7509 76.3823 97.2014C77.4915 98.652 79.0274 99.3773 80.9899 99.3773C82.4404 99.3773 83.8483 98.9933 85.2135 98.2254C86.5788 97.4574 87.816 96.5188 88.9252 95.4096C90.1198 94.215 91.1864 92.9351 92.125 91.5699C93.0635 90.2047 93.8315 88.9675 94.4288 87.8582C94.7701 89.8207 95.2394 91.7406 95.8366 93.6178C96.4339 95.4949 97.2445 97.1588 98.2684 98.6093C99.3777 100.06 100.7 101.254 102.236 102.193C103.772 103.046 105.692 103.473 107.996 103.473C111.153 103.302 113.712 102.364 115.675 100.657C116.507 99.929 117.269 99.1515 117.96 98.3247C117.632 98.8712 117.313 99.4354 117.003 100.017C116.32 101.212 115.851 102.492 115.595 103.857C114.998 106.331 115.04 108.806 115.723 111.28C116.491 113.755 117.813 115.845 119.691 117.552C121.397 119.173 123.488 120.112 125.962 120.368C128.522 120.709 130.868 120.41 133.002 119.472C135.391 118.277 137.183 116.442 138.377 113.968C139.657 111.494 140.34 109.019 140.425 106.545C140.596 103.558 139.998 100.742 138.633 98.0974C137.268 95.4523 135.86 92.8925 134.409 90.418C135.348 89.4794 136.671 88.3275 138.377 86.9623L142.446 83.6686C142.608 85.8171 142.909 87.8962 143.349 89.9061C144.031 92.5512 145.141 94.8123 146.676 96.6895C148.298 98.5667 150.644 99.5053 153.716 99.5053C156.19 99.5053 158.537 98.78 160.755 97.3294C162.754 95.9967 164.529 94.4069 166.078 92.5602C166.095 92.6994 166.113 92.8386 166.132 92.9778C166.473 95.4523 167.113 97.6281 168.052 99.5053C168.99 101.297 170.483 102.193 172.531 102.193C174.238 102.193 175.432 101.937 176.115 101.425C176.798 100.828 177.181 100.103 177.267 99.2493C177.352 98.3107 177.267 97.3294 177.011 96.3055C176.84 95.1963 176.755 94.087 176.755 92.9778C176.755 91.4419 176.712 89.5221 176.627 87.2183C176.542 84.9145 176.627 82.696 176.883 80.5628C177.139 78.3444 177.608 76.4672 178.291 74.9313C178.973 73.3954 180.083 72.6275 181.618 72.6275C182.728 72.6275 183.581 73.4381 184.178 75.0593C184.776 76.6805 185.245 78.6857 185.586 81.0748C186.013 83.3786 186.397 85.9384 186.738 88.7542C187.165 91.4846 187.719 94.0444 188.402 96.4335C189.084 98.8226 190.023 100.828 191.218 102.449C192.412 103.985 194.033 104.753 196.081 104.753C197.19 104.753 198.044 104.539 198.641 104.113C199.238 103.772 199.665 103.345 199.921 102.833C200.177 102.236 200.262 101.638 200.177 101.041C200.177 100.254 199.408 99.8988 198.683 99.564C198.644 99.5458 198.605 99.5276 198.565 99.5094C198.548 99.5011 198.53 99.4927 198.512 99.4844C197.9 99.1974 197.346 98.607 196.849 97.7134C196.081 96.1775 195.356 94.215 194.673 91.8259C193.991 89.3514 193.265 86.7063 192.498 83.8906C191.815 80.9895 191.004 78.3017 190.066 75.8272C189.212 73.3528 188.146 71.305 186.866 69.6838C185.586 67.9772 184.008 67.124 182.13 67.124C180.936 67.124 179.741 67.5079 178.547 68.2759C177.437 68.9585 176.328 70.281 175.219 72.2435C175.219 71.1343 175.262 69.8971 175.347 68.5319C175.432 67.0813 175.347 65.7587 175.091 64.5642C174.835 63.3696 174.323 62.3884 173.555 61.6204C172.873 60.7672 171.763 60.3405 170.227 60.3405C169.289 60.3405 168.35 60.5539 167.412 60.9805C166.473 61.4071 166.004 62.175 166.004 63.2843L165.876 79.155C165.876 80.5405 165.837 82.4711 165.759 84.9466C165.428 85.4538 165.083 85.955 164.723 86.4503C163.358 88.3275 161.864 89.9487 160.243 91.3139C158.707 92.6792 157.172 93.3618 155.636 93.3618C154.27 93.3618 153.289 92.2099 152.692 89.9061C152.18 87.6022 151.839 84.9571 151.668 81.9707C151.583 78.899 151.625 75.8699 151.796 72.8835C151.967 69.8971 152.18 67.7639 152.436 66.484C152.18 65.6308 151.583 64.9482 150.644 64.4362C149.705 63.8389 148.724 63.5403 147.7 63.5403C146.42 63.5403 145.396 63.9242 144.629 64.6922C143.946 65.3748 143.434 66.228 143.093 67.252C142.751 68.2759 142.538 69.3851 142.453 70.5797C142.367 71.7742 142.325 72.7982 142.325 73.6514V76.6054C141.959 76.9193 141.532 77.2709 140.937 77.7471C139.316 79.1123 137.652 80.4349 135.945 81.7148L131.338 85.1705C129.631 81.7574 128.565 78.3444 128.138 74.9313C127.797 71.4329 128.394 68.0199 129.93 64.6922C130.442 64.8628 130.954 64.9055 131.466 64.8202C132.063 64.6495 132.532 64.4362 132.874 64.1802C133.3 63.8389 133.513 63.4549 133.513 63.0283C133.599 62.5164 133.385 62.0044 132.874 61.4924C132.106 60.7245 131.21 60.2552 130.186 60.0846C129.162 59.8286 128.138 59.8286 127.114 60.0846C126.09 60.3405 125.109 60.7672 124.17 61.3645C123.232 61.9617 122.464 62.6443 121.866 63.4123C120.587 65.3748 119.733 67.6786 119.307 70.3237C118.88 72.8835 118.837 75.3153 119.179 77.6191C119.264 78.3017 119.392 78.9843 119.563 79.6669C119.656 79.9944 119.775 80.386 119.92 80.8417ZM147.828 53.6851C146.378 53.6851 145.567 53.3438 145.396 52.6612C145.226 51.9786 145.141 51.04 145.141 49.8454C145.141 48.3949 145.396 47.1576 145.908 46.1337C146.42 45.0245 147.53 44.4699 149.236 44.4699C150.175 44.4699 150.985 44.5125 151.668 44.5979C152.351 44.5979 152.777 45.0672 152.948 46.0057C153.033 46.6883 152.991 47.499 152.82 48.4375C152.649 49.2908 152.351 50.1014 151.924 50.8693C151.497 51.6373 150.9 52.3199 150.132 52.9172C149.449 53.4291 148.682 53.6851 147.828 53.6851Z" fill="white"/>
<path d="M71.6207 117.535C72.4298 116.685 73.7748 116.652 74.625 117.461C76.7674 119.5 81.3414 121.978 88.0419 117.683C88.5872 117.334 89.262 117.252 89.875 117.461C90.488 117.67 90.9721 118.147 91.1899 118.757C91.6337 120 94 123.125 99.1641 121.975C100.331 121.848 101.38 122.69 101.507 123.857C101.634 125.024 100.792 126.073 99.625 126.2C94.125 127.625 90.375 125 88.4102 122.351C80.2743 126.363 74.4999 123.209 71.6952 120.54C70.845 119.731 70.8117 118.386 71.6207 117.535Z" fill="white"/>
<path d="M154.205 23.6349C153.037 23.5218 151.998 24.3772 151.885 25.5453C151.772 26.7135 152.627 27.7521 153.795 27.8651C156.102 28.0884 160.169 28.6427 163.305 30.686C166.394 32.6985 168.463 36.0831 169.016 40.5136C169.091 41.1073 169.412 41.6423 169.901 41.987C170.39 42.3317 171.002 42.4542 171.586 42.3244C174.098 41.7662 180.806 41.658 184.339 46.9575C184.99 47.934 186.309 48.1978 187.286 47.5468C188.262 46.8958 188.526 45.5765 187.875 44.6C183.849 38.5603 176.861 37.6956 172.845 37.8964C171.641 33.0672 169.013 29.3321 165.625 27.125C161.816 24.6433 157.064 23.9116 154.205 23.6349Z" fill="white"/>
</g>
<defs>
<filter id="filter0_d_320_50" x="0" y="0" width="220.08" height="141.4" filterUnits="userSpaceOnUse" color-interpolation-filters="sRGB">
<feFlood flood-opacity="0" result="BackgroundImageFix"/>
<feColorMatrix in="SourceAlpha" type="matrix" values="0 0 0 0 0 0 0 0 0 0 0 0 0 0 0 0 0 0 127 0" result="hardAlpha"/>
<feOffset dy="1"/>
<feGaussianBlur stdDeviation="4"/>
<feComposite in2="hardAlpha" operator="out"/>
<feColorMatrix type="matrix" values="0 0 0 0 0 0 0 0 0 0 0 0 0 0 0 0 0 0 0.25 0"/>
<feBlend mode="normal" in2="BackgroundImageFix" result="effect1_dropShadow_320_50"/>
<feBlend mode="normal" in="SourceGraphic" in2="effect1_dropShadow_320_50" result="shape"/>
</filter>
</defs>
</svg>
