<svg width="820" height="789" viewBox="0 0 820 789" fill="none" xmlns="http://www.w3.org/2000/svg">
<path d="M392.649 788.908H568.994C569.318 787.315 569.618 785.745 569.918 784.129C572.304 772.26 574.705 760.206 577.122 747.968C577.515 746.075 577.861 744.204 578.254 742.334C579.362 736.7 580.563 731.066 581.625 725.385C581.971 723.492 582.364 721.645 582.733 719.751C582.964 718.551 583.195 717.442 583.449 716.172C583.703 714.902 583.842 714.232 584.003 713.286C585.089 707.882 586.151 702.479 587.236 697.122C587.236 697.122 587.236 697.122 587.236 696.984C587.444 695.991 587.652 694.975 587.813 693.982C588.598 690.126 589.36 686.269 590.122 682.436C590.63 679.804 591.162 677.195 591.67 674.586C594.648 659.6 597.581 644.821 600.467 630.436C600.814 628.612 601.183 626.834 601.529 625.032C602.776 618.706 604.023 612.425 605.247 606.283C605.432 605.498 605.593 604.713 605.709 603.974C606.402 600.533 607.071 597.046 607.764 593.721C608.11 591.966 608.48 590.188 608.803 588.457C609.265 586.147 609.727 583.838 610.188 581.529C611.112 576.911 611.99 572.455 612.89 568.044L618.594 539.412C618.801 538.465 618.986 537.541 619.171 536.618C619.425 535.301 619.679 533.962 619.933 532.669C620.187 531.376 620.579 529.529 620.88 528.051C622.173 521.516 623.396 515.328 624.551 509.578C624.874 507.916 625.221 506.299 625.521 504.729L627.83 493.553C628.03 492.614 628.215 491.691 628.384 490.782C629.007 487.642 629.585 484.709 630.139 482.031C630.324 480.992 630.531 479.976 630.739 479.006C632.841 468.43 634.134 461.896 634.411 460.533C634.415 460.449 634.415 460.364 634.411 460.279H471.713V460.556L470.904 463.812C470.65 464.828 470.327 466.121 469.981 467.507C463.307 494.546 439.293 591.92 415.232 693.174C407.451 725.316 399.761 757.99 392.649 788.908Z" fill="#D3766A"/>
<path d="M392.649 788.908H575.529L634.388 460.002H471.736L392.649 788.908Z" fill="#263238"/>
<path opacity="0.1" d="M471.712 460.002L554.539 788.908H575.529L634.388 460.002H471.712Z" fill="black"/>
<path d="M471.574 459.702V460.164C472.613 467.206 481.157 531.007 502.4 590.281C503.763 594.068 505.125 597.739 506.557 601.318C512.188 603.012 517.703 605.072 523.067 607.484L526.923 609.192C533.642 612.217 541.932 616.281 551.699 621.661V623.462C551.699 623.947 551.699 624.548 551.699 625.217C551.953 630.413 561.628 762.262 562.945 788.747H729.383C726.797 763.739 724.234 739.148 721.717 716.011C718.254 683.683 714.952 654.404 712.112 630.574C712.112 630.574 740.837 562.456 687.058 459.702H471.574Z" fill="#D3766A"/>
<path d="M559.088 788.931L744.023 788.77L715.667 630.667C715.667 630.667 727.421 596.238 725.989 576.172C724.465 554.675 714.905 499.603 691.099 459.702H471.574C471.574 459.702 470.512 532.046 497.413 601.11L531.01 614.48L559.088 788.931Z" fill="#263238"/>
<path d="M678.584 549.017C663.459 547.516 647.896 547.701 633.857 540.982C619.817 534.262 610.535 520.754 603.261 507.246C598.796 498.891 595.42 489.998 593.217 480.784C593.186 480.698 593.127 480.626 593.048 480.579C592.97 480.532 592.878 480.514 592.788 480.528C592.698 480.541 592.615 480.586 592.555 480.654C592.494 480.721 592.458 480.808 592.455 480.899C593.036 489.518 595.131 497.968 598.643 505.861C601.788 513.669 605.816 521.091 610.65 527.982C615.135 534.594 621.045 540.118 627.945 544.145C634.963 547.951 642.674 550.307 650.621 551.072C659.935 552.035 669.327 551.981 678.63 550.911C678.881 550.905 679.119 550.799 679.292 550.617C679.466 550.435 679.559 550.192 679.553 549.941C679.547 549.69 679.442 549.452 679.26 549.278C679.078 549.105 678.835 549.011 678.584 549.017Z" fill="#37474F"/>
<path d="M459.798 540.289C461.576 538.834 470.027 537.564 478.27 521.47C481.394 515.107 483.721 508.383 485.198 501.45C486.144 497.317 489.238 477.182 489.469 477.066C489.7 476.951 489.677 477.066 489.723 477.343C490.024 478.729 488.107 497.178 487.276 501.889C486.155 509.917 483.754 517.713 480.164 524.98C472.244 538.973 461.529 542.575 459.705 541.628C459.405 541.467 459.544 540.497 459.798 540.289Z" fill="#37474F"/>
<path d="M500.599 599.887C521.111 607.353 540.936 616.585 559.85 627.48C560.013 627.554 560.139 627.689 560.202 627.855C560.265 628.022 560.259 628.207 560.185 628.369C560.112 628.531 559.977 628.658 559.81 628.721C559.643 628.783 559.458 628.777 559.296 628.704C539.346 620.23 518.98 611.917 499.583 602.265C499.329 602.094 499.142 601.84 499.055 601.546C498.968 601.252 498.986 600.937 499.106 600.655C499.227 600.373 499.442 600.142 499.714 600.002C499.987 599.861 500.3 599.821 500.599 599.887Z" fill="#37474F"/>
<path d="M494.249 462.912C494.249 462.219 495.519 462.08 495.519 462.912C495.513 485.183 496.63 507.44 498.867 529.598C499.791 539.873 508.104 596.7 525.884 592.567C528.862 591.874 530.386 588.942 530.871 584.439C531.425 579.012 529.393 572.385 528.562 567.005C526.576 555.113 525.006 543.175 523.944 531.168C521.88 508.796 522.128 486.272 524.683 463.951C524.683 463.798 524.744 463.651 524.852 463.542C524.96 463.434 525.107 463.373 525.26 463.373C525.413 463.373 525.56 463.434 525.668 463.542C525.777 463.651 525.837 463.798 525.837 463.951C525.837 494.985 526.623 525.973 531.264 556.73C533.573 571.508 540.939 593.675 525.468 595.984C509.997 598.293 499.583 561.048 497.574 550.957C492.217 522.417 492.009 491.706 494.249 462.912Z" fill="#37474F"/>
<path d="M525.422 593.998C526.998 597.837 528.332 601.77 529.417 605.775C530.572 608.867 531.136 612.149 531.079 615.45C531.051 615.578 530.987 615.696 530.894 615.79C530.801 615.883 530.684 615.948 530.555 615.977C530.427 616.007 530.293 615.998 530.169 615.954C530.045 615.91 529.936 615.831 529.855 615.727C528 612.819 526.606 609.641 525.722 606.306C524.36 602.657 522.928 599.032 521.658 595.361C521.528 594.875 521.586 594.358 521.818 593.913C522.051 593.467 522.443 593.125 522.915 592.954C523.388 592.783 523.908 592.795 524.372 592.988C524.836 593.182 525.211 593.542 525.422 593.998Z" fill="#37474F"/>
<path d="M559.619 26.7945C559.619 26.7945 597.304 11.67 630.231 48.9386C669.486 93.25 639.814 225.953 641.153 238.284C642.493 250.614 647.342 254.078 647.85 265.046C648.358 276.014 638.613 281.972 637.089 285.666C635.565 289.361 644.017 310.304 644.017 310.304C644.017 310.304 583.103 318.917 546.85 307.302C510.598 295.688 471.874 265.323 471.874 265.323C471.874 265.323 481.688 254.424 482.357 248.79C483.027 243.156 477.324 234.936 479.032 224.706C480.741 214.477 497.736 203.924 499.953 198.591C502.169 193.257 506.118 90.6177 519.187 56.143C532.257 21.6683 559.619 26.7945 559.619 26.7945Z" fill="#263238"/>
<path d="M470.281 262.183C474.04 258.803 477.312 254.917 480.002 250.637C480.708 249.489 481.098 248.175 481.134 246.827C480.279 238.399 473.952 230.294 476.377 221.658C478.986 215.124 486.214 210.367 491.247 205.656C494.088 202.955 497.413 200.184 498.567 196.12C498.804 194.813 498.974 193.495 499.075 192.171C502.654 149.753 504.548 106.735 516.417 65.5179C519.372 56.0045 522.974 46.3986 529.463 38.6632C522.397 45.9599 518.379 55.6119 514.916 65.033C501.384 105.881 499.121 149.315 496.143 192.033C496.027 193.233 495.935 194.573 495.75 195.589C494.803 198.868 491.871 201.315 489.423 203.763C484.112 208.981 476.954 213.83 474.368 221.15C471.943 230.387 478.571 238.33 480.118 246.966C480.121 248.154 479.819 249.323 479.24 250.36C476.778 254.721 473.767 258.749 470.281 262.344V262.183Z" fill="#263238"/>
<path d="M647.365 305.34C645.587 299.867 642.908 292.917 641.523 287.444V287.236C642.036 286.486 642.632 285.797 643.301 285.181C648.681 279.94 653.461 273.266 653.576 265.415C654.061 256.179 648.727 247.89 646.649 239.531C645.125 233.758 646.164 228.147 646.995 222.374C654.292 173.006 664.891 89.1399 631.201 48.523C627.336 43.9615 622.711 40.1024 617.531 37.1161C622.489 40.3652 626.888 44.3968 630.555 49.0541C661.935 90.6177 650.713 172.636 644.409 221.982C643.532 227.916 642.585 234.289 644.409 240.154C646.718 248.975 652.075 256.318 651.914 265.392C651.663 271.199 649.439 276.746 645.61 281.117C644.247 282.872 642.654 284.419 641.246 286.197C641.006 286.481 640.846 286.824 640.784 287.19C642.714 293.362 644.988 299.422 647.596 305.34H647.365Z" fill="#263238"/>
<path d="M511.798 227.454C477.162 258.65 351.709 385.834 362.239 427.883C372.029 466.976 408.421 473.533 432.343 452.336C466.979 421.625 521.566 301.968 535.328 265.3C548.42 230.248 545.903 196.812 511.798 227.454Z" fill="#D3766A"/>
<path d="M501.13 356.763L395.236 318.778C395.236 318.778 486.283 235.005 519.926 217.918C557.888 198.683 559.412 222.305 547.15 260.843C534.889 299.382 501.13 356.763 501.13 356.763Z" fill="#455A64"/>
<path d="M416.872 305.316C420.751 306.078 453.817 317.393 461.091 320.002C468.364 322.612 497.62 333.025 504.802 336.351C504.872 336.372 504.931 336.421 504.966 336.486C505 336.55 505.008 336.627 504.986 336.697C504.965 336.767 504.916 336.826 504.851 336.861C504.787 336.896 504.71 336.903 504.64 336.882C496.997 334.988 467.348 324.574 460.005 322.057C452.663 319.54 420.058 307.602 416.664 305.894C416.456 305.64 416.618 305.27 416.872 305.316Z" fill="#263238"/>
<path opacity="0.1" d="M547.22 260.843C534.982 299.405 501.153 356.763 501.153 356.763L431.881 331.917L547.335 212.237C557.31 216.902 555.209 235.698 547.22 260.843Z" fill="black"/>
<path d="M697.68 464.412L459.197 463.697L482.034 375.467C482.034 375.467 462.153 350.575 468.711 325.544C477.947 290.423 530.109 222.051 534.566 218.264C552.461 203.047 580.955 202.262 593.609 215.308C669.186 293.125 697.68 464.412 697.68 464.412Z" fill="#455A64"/>
<path d="M551.699 355.008C540.538 356.081 529.471 357.972 518.587 360.665C513.207 362.074 507.919 363.713 502.654 365.491C500.022 366.369 497.366 367.177 494.711 367.962C491.948 368.853 489.087 369.404 486.19 369.601C486.135 369.601 486.082 369.623 486.043 369.662C486.005 369.701 485.983 369.754 485.983 369.809C485.983 369.864 486.005 369.917 486.043 369.956C486.082 369.995 486.135 370.017 486.19 370.017C488.932 370.121 491.678 370.052 494.411 369.809C497.051 369.475 499.666 368.966 502.239 368.285C507.711 366.9 513.114 365.26 518.587 363.829C529.601 360.942 540.616 358.033 551.838 355.932C552.346 355.839 552.207 354.962 551.699 355.008Z" fill="#263238"/>
<path d="M579.316 364.752C570.109 363.839 560.858 363.446 551.607 363.575C546.989 363.575 542.371 364.013 537.752 364.475C535.559 364.706 533.365 364.96 531.171 365.26C528.978 365.56 526.415 366.23 523.99 366.507C523.959 366.496 523.925 366.493 523.893 366.498C523.86 366.502 523.829 366.515 523.802 366.534C523.774 366.553 523.752 366.579 523.737 366.608C523.722 366.638 523.714 366.67 523.714 366.703C523.714 366.737 523.722 366.769 523.737 366.799C523.752 366.828 523.774 366.854 523.802 366.873C523.829 366.892 523.86 366.905 523.893 366.909C523.925 366.914 523.959 366.911 523.99 366.9C526.299 366.715 528.608 366.9 530.917 366.9L537.845 366.692C542.463 366.553 547.081 366.461 551.699 366.276C560.936 365.907 570.172 365.63 579.408 365.584C579.847 365.491 579.801 364.798 579.316 364.752Z" fill="#263238"/>
<path d="M589.915 246.596C602.915 291.416 652.583 453.675 691.514 462.103C730.907 470.647 760.094 455.938 759.402 424.05C758.686 389.413 661.289 270.241 634.203 241.863C608.364 214.846 577.169 202.585 589.915 246.596Z" fill="#D3766A"/>
<path d="M616.538 358.61L725.989 332.518C725.989 332.518 644.732 239.23 613.098 218.449C577.492 195.15 573.359 218.449 581.302 258.119C589.245 297.789 616.538 358.61 616.538 358.61Z" fill="#455A64"/>
<path d="M705.9 315.961C701.975 316.261 667.731 323.858 660.319 325.683C652.906 327.507 622.588 334.596 615.084 337.113C615.025 337.138 614.977 337.183 614.948 337.24C614.918 337.297 614.91 337.363 614.923 337.425C614.937 337.488 614.972 337.544 615.022 337.584C615.073 337.624 615.135 337.645 615.199 337.644C622.981 336.605 653.599 329.516 661.196 327.83C668.793 326.144 702.483 317.878 706.062 316.446C706.362 316.331 706.154 315.938 705.9 315.961Z" fill="#263238"/>
<path d="M626.375 356.255C623.027 357.294 619.656 358.218 616.284 359.211L616.1 358.818C607.127 340.639 599.487 321.832 593.24 302.546C591.161 296.126 589.291 289.615 587.767 283.034C593.886 299.983 602.799 322.912 609.496 339.63L617 358.402L616.423 358.102C619.748 357.479 623.05 356.809 626.375 356.255Z" fill="#263238"/>
<path d="M585.019 291.416C588.948 295.965 592.428 300.883 595.41 306.102C590.55 302.361 586.929 297.244 585.019 291.416Z" fill="#263238"/>
<path d="M792.583 617.043L646.072 643.113C606.471 650.178 607.187 617.366 610.766 582.43C614.345 547.493 619.448 494.685 654.846 488.311L692.877 481.546L730.931 474.757C766.329 468.453 789.35 516.321 804.821 547.886C820.292 579.451 832.092 610 792.583 617.043Z" fill="#D4550B"/>
<path d="M650.99 490.644C651.057 491.044 650.964 491.456 650.731 491.788C650.498 492.121 650.143 492.348 649.743 492.422C649.363 492.449 648.987 492.334 648.686 492.101C648.385 491.868 648.181 491.532 648.112 491.157C648.044 490.783 648.116 490.396 648.314 490.071C648.513 489.747 648.824 489.506 649.189 489.397C649.592 489.329 650.006 489.421 650.343 489.654C650.679 489.887 650.911 490.242 650.99 490.644ZM674.081 484.963C673.778 485.014 673.497 485.154 673.274 485.365C673.051 485.576 672.896 485.848 672.828 486.148C672.76 486.447 672.783 486.76 672.894 487.046C673.004 487.332 673.197 487.58 673.449 487.756C673.7 487.932 673.998 488.03 674.305 488.036C674.612 488.042 674.914 487.957 675.172 487.791C675.431 487.626 675.634 487.387 675.756 487.105C675.878 486.824 675.914 486.512 675.859 486.21C675.796 485.824 675.585 485.477 675.27 485.244C674.955 485.011 674.561 484.91 674.173 484.963H674.081ZM699.065 480.507C698.846 480.518 698.633 480.576 698.438 480.676C698.243 480.776 698.072 480.917 697.935 481.088C697.799 481.259 697.7 481.458 697.646 481.67C697.592 481.882 697.584 482.104 697.621 482.319C697.659 482.535 697.743 482.74 697.866 482.922C697.989 483.103 698.149 483.256 698.336 483.37C698.523 483.485 698.731 483.559 698.949 483.586C699.166 483.614 699.387 483.596 699.596 483.532C699.958 483.422 700.266 483.183 700.464 482.861C700.661 482.539 700.734 482.156 700.669 481.784C700.604 481.412 700.405 481.077 700.109 480.842C699.814 480.606 699.442 480.487 699.065 480.507ZM724.026 476.073C723.723 476.125 723.442 476.266 723.219 476.479C722.997 476.691 722.842 476.965 722.776 477.266C722.71 477.566 722.735 477.88 722.848 478.166C722.96 478.452 723.156 478.698 723.41 478.873C723.663 479.047 723.963 479.142 724.271 479.145C724.578 479.149 724.88 479.06 725.137 478.891C725.394 478.722 725.595 478.48 725.714 478.196C725.833 477.912 725.864 477.599 725.804 477.297C725.736 476.915 725.523 476.574 725.208 476.345C724.894 476.117 724.503 476.02 724.119 476.073H724.026ZM629.839 525.95C629.439 526.023 629.084 526.25 628.851 526.583C628.618 526.916 628.525 527.327 628.592 527.728C628.67 528.129 628.903 528.484 629.239 528.717C629.575 528.95 629.989 529.042 630.393 528.975C630.793 528.901 631.147 528.674 631.381 528.341C631.614 528.008 631.707 527.597 631.64 527.197C631.562 526.813 631.343 526.473 631.027 526.242C630.711 526.012 630.32 525.907 629.931 525.95H629.839ZM654.823 521.493C654.422 521.572 654.067 521.804 653.834 522.14C653.601 522.477 653.508 522.891 653.576 523.294C653.609 523.493 653.682 523.683 653.79 523.853C653.898 524.023 654.04 524.169 654.206 524.283C654.371 524.397 654.559 524.477 654.756 524.517C654.953 524.558 655.157 524.558 655.354 524.518C655.553 524.485 655.744 524.412 655.915 524.304C656.086 524.196 656.234 524.056 656.35 523.89C656.466 523.725 656.548 523.538 656.591 523.34C656.634 523.143 656.638 522.939 656.601 522.74C656.528 522.359 656.314 522.019 656.002 521.788C655.689 521.557 655.302 521.451 654.915 521.493H654.823ZM679.784 517.06C679.586 517.093 679.396 517.166 679.226 517.274C679.056 517.382 678.909 517.523 678.795 517.689C678.681 517.855 678.601 518.042 678.561 518.24C678.521 518.437 678.521 518.64 678.56 518.838C678.612 519.141 678.753 519.422 678.966 519.645C679.178 519.867 679.452 520.022 679.753 520.088C680.053 520.154 680.367 520.129 680.653 520.016C680.939 519.904 681.185 519.708 681.36 519.454C681.534 519.201 681.629 518.901 681.632 518.593C681.636 518.286 681.547 517.984 681.378 517.727C681.209 517.47 680.967 517.269 680.683 517.15C680.399 517.031 680.086 517 679.784 517.06ZM704.769 512.603C704.367 512.682 704.012 512.914 703.779 513.25C703.546 513.587 703.454 514.001 703.522 514.404C703.631 514.769 703.871 515.08 704.196 515.279C704.521 515.478 704.908 515.549 705.282 515.481C705.657 515.412 705.993 515.208 706.226 514.907C706.459 514.606 706.573 514.23 706.547 513.85C706.473 513.469 706.259 513.129 705.947 512.898C705.635 512.667 705.247 512.561 704.861 512.603H704.769ZM729.753 508.17C729.552 508.2 729.36 508.271 729.187 508.378C729.015 508.485 728.866 508.626 728.749 508.792C728.632 508.958 728.551 509.146 728.509 509.345C728.467 509.544 728.466 509.749 728.506 509.948C728.517 510.166 728.575 510.38 728.675 510.575C728.775 510.77 728.916 510.941 729.087 511.078C729.258 511.214 729.457 511.313 729.669 511.367C729.881 511.421 730.103 511.429 730.319 511.391C730.534 511.354 730.74 511.27 730.921 511.147C731.102 511.024 731.255 510.864 731.369 510.677C731.484 510.49 731.558 510.281 731.586 510.064C731.613 509.847 731.595 509.626 731.531 509.417C731.463 509.033 731.25 508.689 730.937 508.457C730.623 508.225 730.232 508.122 729.845 508.17H729.753ZM754.714 503.713C754.314 503.786 753.96 504.014 753.726 504.347C753.493 504.679 753.4 505.09 753.467 505.491C753.577 505.852 753.816 506.161 754.138 506.359C754.46 506.556 754.843 506.629 755.215 506.564C755.587 506.499 755.922 506.299 756.157 506.004C756.392 505.709 756.512 505.337 756.492 504.96C756.419 504.579 756.205 504.239 755.893 504.008C755.58 503.777 755.193 503.671 754.806 503.713H754.714ZM639.398 507.269C638.999 507.342 638.644 507.57 638.411 507.903C638.177 508.235 638.084 508.646 638.151 509.047C638.23 509.449 638.462 509.804 638.799 510.037C639.135 510.269 639.549 510.362 639.953 510.294C640.317 510.185 640.629 509.944 640.827 509.62C641.026 509.295 641.098 508.908 641.029 508.534C640.961 508.159 640.756 507.823 640.455 507.59C640.154 507.356 639.778 507.242 639.398 507.269ZM664.383 502.813C663.983 502.886 663.628 503.113 663.395 503.446C663.162 503.779 663.068 504.19 663.136 504.591C663.166 504.791 663.237 504.984 663.344 505.156C663.451 505.329 663.592 505.478 663.758 505.595C663.924 505.711 664.112 505.793 664.311 505.834C664.51 505.876 664.715 505.877 664.914 505.838C665.275 505.727 665.584 505.489 665.781 505.167C665.979 504.845 666.052 504.462 665.986 504.09C665.921 503.718 665.722 503.383 665.427 503.147C665.131 502.912 664.76 502.793 664.383 502.813ZM689.344 498.379C688.944 498.452 688.589 498.68 688.356 499.013C688.123 499.345 688.03 499.756 688.097 500.157C688.172 500.557 688.401 500.911 688.736 501.143C689.07 501.375 689.482 501.466 689.883 501.396C690.284 501.326 690.641 501.101 690.877 500.77C691.113 500.439 691.21 500.028 691.145 499.626C691.077 499.237 690.861 498.89 690.542 498.658C690.223 498.425 689.827 498.325 689.436 498.379H689.344ZM714.328 493.923C713.928 493.996 713.574 494.223 713.34 494.556C713.107 494.889 713.014 495.3 713.081 495.701C713.112 495.901 713.183 496.094 713.289 496.266C713.396 496.439 713.537 496.588 713.703 496.705C713.87 496.821 714.058 496.903 714.256 496.945C714.455 496.986 714.66 496.987 714.859 496.948C715.078 496.936 715.292 496.879 715.487 496.778C715.682 496.678 715.853 496.538 715.989 496.366C716.126 496.195 716.224 495.997 716.278 495.784C716.333 495.572 716.341 495.351 716.303 495.135C716.265 494.919 716.182 494.714 716.059 494.533C715.936 494.352 715.775 494.199 715.589 494.084C715.402 493.969 715.193 493.896 714.976 493.868C714.758 493.84 714.538 493.859 714.328 493.923ZM739.289 489.489C739.091 489.522 738.901 489.595 738.731 489.703C738.561 489.812 738.415 489.953 738.3 490.119C738.186 490.285 738.107 490.472 738.066 490.669C738.026 490.866 738.026 491.07 738.066 491.267C738.117 491.571 738.259 491.852 738.471 492.074C738.683 492.297 738.957 492.451 739.258 492.518C739.558 492.584 739.872 492.559 740.158 492.446C740.444 492.333 740.69 492.137 740.865 491.884C741.039 491.63 741.134 491.331 741.138 491.023C741.141 490.715 741.052 490.413 740.883 490.156C740.714 489.899 740.472 489.698 740.188 489.58C739.904 489.461 739.591 489.429 739.289 489.489ZM763.812 485.194C763.527 485.352 763.299 485.595 763.158 485.889C763.017 486.183 762.971 486.513 763.027 486.834C763.063 487.031 763.138 487.219 763.247 487.388C763.356 487.556 763.497 487.701 763.662 487.815C763.827 487.928 764.013 488.008 764.209 488.05C764.405 488.092 764.608 488.094 764.805 488.058C765.072 488.014 765.323 487.899 765.531 487.724C765.738 487.549 765.894 487.321 765.982 487.065C765.359 486.418 764.643 485.795 763.904 485.194H763.812ZM635.565 558.046C635.263 558.097 634.982 558.237 634.759 558.447C634.536 558.658 634.38 558.931 634.313 559.23C634.245 559.53 634.268 559.842 634.378 560.129C634.489 560.415 634.682 560.662 634.933 560.838C635.185 561.015 635.483 561.112 635.789 561.118C636.096 561.125 636.398 561.04 636.657 560.874C636.915 560.708 637.118 560.469 637.241 560.188C637.363 559.906 637.399 559.595 637.343 559.293C637.27 558.911 637.056 558.571 636.744 558.34C636.432 558.109 636.044 558.004 635.658 558.046H635.565ZM660.527 553.613C660.127 553.686 659.772 553.913 659.539 554.246C659.305 554.579 659.212 554.99 659.28 555.391C659.353 555.795 659.584 556.153 659.922 556.387C660.26 556.621 660.676 556.711 661.081 556.637C661.485 556.564 661.843 556.333 662.077 555.995C662.311 555.657 662.401 555.241 662.328 554.836C662.249 554.455 662.03 554.117 661.713 553.89C661.396 553.663 661.005 553.564 660.619 553.613H660.527ZM685.511 549.156C685.111 549.229 684.756 549.457 684.523 549.789C684.29 550.122 684.197 550.533 684.264 550.934C684.374 551.295 684.612 551.604 684.934 551.801C685.256 551.999 685.639 552.072 686.011 552.007C686.383 551.941 686.719 551.742 686.954 551.447C687.189 551.151 687.308 550.78 687.289 550.403C687.216 550.021 687.002 549.681 686.689 549.45C686.377 549.219 685.989 549.114 685.603 549.156H685.511ZM710.472 544.699C710.068 544.773 709.709 545.004 709.476 545.342C709.242 545.68 709.152 546.096 709.225 546.501C709.299 546.905 709.53 547.263 709.867 547.497C710.205 547.731 710.622 547.821 711.026 547.747C711.226 547.711 711.417 547.636 711.588 547.525C711.759 547.415 711.907 547.272 712.023 547.105C712.138 546.938 712.22 546.749 712.263 546.551C712.306 546.352 712.309 546.146 712.273 545.946C712.237 545.746 712.161 545.555 712.051 545.384C711.941 545.213 711.798 545.066 711.631 544.95C711.464 544.834 711.275 544.752 711.076 544.709C710.877 544.666 710.672 544.663 710.472 544.699ZM735.456 540.266C735.238 540.277 735.024 540.335 734.829 540.435C734.634 540.535 734.463 540.676 734.326 540.847C734.19 541.018 734.091 541.217 734.037 541.429C733.983 541.641 733.975 541.863 734.013 542.079C734.051 542.294 734.134 542.5 734.257 542.681C734.38 542.862 734.54 543.015 734.727 543.129C734.914 543.244 735.123 543.318 735.34 543.346C735.557 543.373 735.778 543.355 735.987 543.291C736.187 543.257 736.377 543.185 736.548 543.077C736.719 542.969 736.867 542.828 736.983 542.663C737.099 542.497 737.181 542.311 737.224 542.113C737.267 541.916 737.271 541.712 737.234 541.513C737.161 541.131 736.947 540.791 736.635 540.56C736.323 540.329 735.935 540.224 735.549 540.266H735.456ZM760.51 535.809C760.11 535.884 759.756 536.114 759.524 536.448C759.292 536.783 759.201 537.195 759.271 537.596C759.341 537.996 759.566 538.354 759.897 538.59C760.228 538.826 760.639 538.922 761.041 538.857C761.441 538.782 761.795 538.553 762.027 538.219C762.259 537.884 762.35 537.472 762.28 537.071C762.21 536.671 761.985 536.313 761.654 536.077C761.323 535.841 760.912 535.745 760.51 535.809ZM785.471 531.376C785.11 531.486 784.801 531.725 784.604 532.046C784.406 532.368 784.333 532.751 784.398 533.123C784.464 533.495 784.663 533.831 784.958 534.066C785.254 534.301 785.625 534.42 786.002 534.401C786.203 534.37 786.395 534.3 786.568 534.193C786.741 534.086 786.89 533.945 787.006 533.779C787.123 533.613 787.204 533.424 787.246 533.226C787.288 533.027 787.289 532.822 787.249 532.623C787.181 532.225 786.958 531.87 786.629 531.637C786.3 531.403 785.892 531.309 785.494 531.376H785.471ZM620.21 543.799C619.81 543.874 619.456 544.103 619.224 544.438C618.992 544.772 618.901 545.184 618.971 545.585C619.041 545.986 619.266 546.343 619.597 546.579C619.928 546.815 620.339 546.912 620.741 546.847C621.141 546.772 621.495 546.542 621.727 546.208C621.959 545.874 622.05 545.462 621.98 545.061C621.91 544.66 621.685 544.303 621.354 544.067C621.023 543.83 620.612 543.734 620.21 543.799ZM645.217 539.412C645.017 539.442 644.824 539.513 644.651 539.62C644.479 539.727 644.33 539.868 644.213 540.034C644.097 540.2 644.015 540.388 643.973 540.587C643.932 540.785 643.931 540.991 643.97 541.19C644.021 541.492 644.161 541.773 644.372 541.996C644.583 542.219 644.855 542.375 645.155 542.442C645.454 542.51 645.767 542.487 646.053 542.377C646.339 542.266 646.586 542.073 646.763 541.822C646.939 541.57 647.036 541.272 647.043 540.965C647.049 540.658 646.964 540.357 646.798 540.098C646.633 539.84 646.394 539.637 646.112 539.514C645.831 539.392 645.519 539.356 645.217 539.412ZM670.178 534.955C669.978 534.992 669.787 535.067 669.616 535.177C669.445 535.287 669.298 535.43 669.182 535.597C669.066 535.765 668.985 535.953 668.942 536.152C668.899 536.351 668.895 536.556 668.932 536.756C668.968 536.956 669.043 537.147 669.154 537.318C669.264 537.489 669.407 537.637 669.574 537.753C669.741 537.868 669.93 537.95 670.128 537.993C670.327 538.036 670.533 538.04 670.733 538.003C671.137 537.93 671.495 537.699 671.729 537.361C671.963 537.023 672.053 536.606 671.98 536.202C671.906 535.798 671.675 535.439 671.337 535.206C670.999 534.972 670.583 534.882 670.178 534.955ZM695.163 530.522C694.963 530.555 694.773 530.628 694.602 530.736C694.431 530.843 694.283 530.984 694.167 531.15C694.051 531.315 693.969 531.502 693.926 531.699C693.883 531.897 693.879 532.101 693.916 532.3C694.026 532.661 694.264 532.969 694.586 533.167C694.908 533.365 695.291 533.438 695.663 533.372C696.035 533.307 696.371 533.108 696.606 532.813C696.841 532.517 696.96 532.146 696.941 531.769C696.913 531.565 696.844 531.369 696.739 531.193C696.633 531.017 696.493 530.864 696.327 530.743C696.161 530.622 695.972 530.536 695.772 530.49C695.572 530.444 695.365 530.439 695.163 530.475V530.522ZM720.124 526.065C719.722 526.144 719.367 526.376 719.135 526.712C718.902 527.049 718.809 527.463 718.877 527.866C718.951 528.27 719.182 528.629 719.519 528.863C719.857 529.097 720.274 529.187 720.678 529.113C721.082 529.04 721.441 528.809 721.675 528.471C721.908 528.133 721.999 527.716 721.925 527.312C721.857 526.902 721.629 526.536 721.292 526.293C720.954 526.051 720.534 525.952 720.124 526.019V526.065ZM745.108 521.632C744.889 521.643 744.676 521.701 744.481 521.801C744.286 521.901 744.115 522.041 743.978 522.213C743.842 522.384 743.743 522.583 743.689 522.795C743.635 523.007 743.627 523.228 743.665 523.444C743.702 523.66 743.786 523.865 743.909 524.046C744.032 524.228 744.192 524.381 744.379 524.495C744.566 524.61 744.775 524.683 744.992 524.711C745.209 524.739 745.43 524.72 745.639 524.657C746.001 524.546 746.309 524.308 746.507 523.986C746.704 523.664 746.777 523.281 746.712 522.909C746.647 522.537 746.448 522.202 746.152 521.967C745.857 521.731 745.485 521.612 745.108 521.632ZM770.07 517.175C769.87 517.211 769.68 517.286 769.509 517.397C769.339 517.507 769.193 517.651 769.079 517.819C768.965 517.986 768.886 518.175 768.846 518.374C768.806 518.573 768.806 518.777 768.846 518.976C768.879 519.175 768.952 519.365 769.06 519.535C769.168 519.705 769.309 519.851 769.475 519.965C769.641 520.079 769.828 520.159 770.026 520.199C770.223 520.24 770.426 520.24 770.624 520.2C771.023 520.127 771.378 519.899 771.612 519.567C771.845 519.234 771.938 518.823 771.871 518.422C771.803 518.012 771.575 517.646 771.237 517.403C770.9 517.161 770.48 517.062 770.07 517.129V517.175ZM616.4 594.599C616.199 594.629 616.007 594.7 615.834 594.807C615.662 594.914 615.513 595.055 615.396 595.221C615.279 595.387 615.198 595.575 615.156 595.774C615.114 595.973 615.113 596.178 615.153 596.377C615.164 596.596 615.222 596.809 615.322 597.004C615.422 597.199 615.563 597.37 615.734 597.507C615.905 597.643 616.104 597.742 616.316 597.796C616.528 597.85 616.75 597.858 616.965 597.82C617.181 597.783 617.387 597.699 617.568 597.576C617.749 597.453 617.902 597.293 618.016 597.106C618.131 596.919 618.205 596.711 618.232 596.493C618.26 596.276 618.242 596.055 618.178 595.846C618.144 595.646 618.072 595.456 617.964 595.285C617.856 595.114 617.715 594.966 617.55 594.85C617.384 594.734 617.198 594.652 617 594.609C616.803 594.566 616.599 594.562 616.4 594.599ZM641.361 590.212C640.961 590.285 640.607 590.512 640.373 590.845C640.14 591.178 640.047 591.589 640.114 591.989C640.147 592.191 640.221 592.384 640.33 592.557C640.439 592.729 640.582 592.878 640.75 592.995C640.918 593.111 641.108 593.192 641.308 593.234C641.508 593.275 641.715 593.276 641.915 593.236C642.114 593.203 642.304 593.13 642.474 593.022C642.644 592.914 642.79 592.773 642.904 592.607C643.018 592.441 643.098 592.254 643.138 592.057C643.179 591.859 643.179 591.656 643.139 591.458C643.066 591.059 642.838 590.704 642.506 590.471C642.173 590.237 641.762 590.144 641.361 590.212ZM666.345 585.778C666.146 585.811 665.955 585.884 665.784 585.992C665.614 586.1 665.466 586.241 665.35 586.406C665.234 586.572 665.152 586.758 665.109 586.956C665.065 587.153 665.062 587.357 665.098 587.556C665.209 587.917 665.447 588.226 665.769 588.424C666.091 588.621 666.474 588.694 666.846 588.629C667.218 588.564 667.553 588.364 667.788 588.069C668.024 587.774 668.143 587.402 668.123 587.025C668.102 586.818 668.037 586.618 667.934 586.437C667.831 586.257 667.691 586.1 667.524 585.976C667.357 585.852 667.165 585.765 666.963 585.719C666.76 585.673 666.55 585.669 666.345 585.709V585.778ZM691.237 581.252C690.838 581.325 690.483 581.553 690.25 581.886C690.016 582.218 689.923 582.63 689.99 583.03C690.065 583.43 690.295 583.784 690.629 584.016C690.964 584.248 691.376 584.339 691.777 584.269C692.177 584.199 692.535 583.974 692.771 583.643C693.007 583.312 693.103 582.901 693.038 582.499C692.96 582.098 692.728 581.743 692.391 581.51C692.055 581.277 691.641 581.184 691.237 581.252ZM716.222 576.819C715.919 576.87 715.638 577.009 715.415 577.22C715.192 577.431 715.037 577.704 714.969 578.003C714.901 578.302 714.924 578.615 715.035 578.902C715.145 579.188 715.338 579.435 715.59 579.611C715.841 579.787 716.139 579.885 716.446 579.891C716.753 579.898 717.055 579.813 717.313 579.647C717.571 579.481 717.775 579.242 717.897 578.961C718.019 578.679 718.055 578.368 718 578.066C717.937 577.674 717.722 577.324 717.402 577.09C717.082 576.856 716.683 576.759 716.291 576.819H716.222ZM741.183 572.362C740.818 572.472 740.507 572.712 740.308 573.037C740.11 573.362 740.038 573.748 740.106 574.123C740.175 574.497 740.379 574.833 740.68 575.067C740.981 575.3 741.357 575.414 741.737 575.387C742.137 575.314 742.492 575.086 742.725 574.754C742.958 574.421 743.051 574.01 742.984 573.609C742.905 573.221 742.684 572.878 742.362 572.646C742.041 572.415 741.645 572.314 741.252 572.362H741.183ZM766.167 567.929C765.864 567.98 765.584 568.119 765.361 568.33C765.138 568.541 764.982 568.814 764.914 569.113C764.847 569.412 764.87 569.725 764.98 570.012C765.091 570.298 765.284 570.545 765.535 570.721C765.786 570.897 766.085 570.995 766.391 571.001C766.698 571.008 767 570.923 767.259 570.757C767.517 570.591 767.72 570.352 767.842 570.071C767.965 569.789 768 569.478 767.945 569.176C767.883 568.784 767.668 568.434 767.348 568.2C767.028 567.967 766.628 567.869 766.236 567.929H766.167ZM791.151 563.472C790.933 563.484 790.719 563.541 790.524 563.642C790.329 563.742 790.158 563.882 790.021 564.053C789.885 564.225 789.786 564.423 789.732 564.635C789.678 564.848 789.67 565.069 789.708 565.285C789.746 565.501 789.829 565.706 789.952 565.887C790.075 566.068 790.235 566.221 790.422 566.336C790.609 566.45 790.818 566.524 791.035 566.552C791.252 566.58 791.473 566.561 791.683 566.497C791.901 566.486 792.115 566.428 792.31 566.328C792.505 566.228 792.676 566.087 792.813 565.916C792.949 565.745 793.048 565.546 793.102 565.334C793.156 565.122 793.164 564.9 793.126 564.685C793.088 564.469 793.005 564.264 792.882 564.082C792.759 563.901 792.599 563.748 792.412 563.634C792.225 563.519 792.016 563.445 791.799 563.418C791.582 563.39 791.361 563.408 791.151 563.472ZM625.89 575.918C625.69 575.949 625.497 576.02 625.324 576.126C625.152 576.233 625.003 576.374 624.886 576.54C624.77 576.707 624.688 576.895 624.646 577.093C624.605 577.292 624.604 577.497 624.643 577.696C624.753 578.058 624.992 578.366 625.314 578.564C625.636 578.761 626.019 578.834 626.391 578.769C626.763 578.704 627.098 578.505 627.333 578.209C627.569 577.914 627.688 577.542 627.668 577.165C627.6 576.777 627.384 576.43 627.065 576.197C626.747 575.964 626.35 575.865 625.959 575.918H625.89ZM650.851 571.462C650.452 571.535 650.097 571.763 649.864 572.095C649.63 572.428 649.537 572.839 649.605 573.24C649.715 573.601 649.953 573.91 650.275 574.107C650.597 574.305 650.98 574.378 651.352 574.313C651.724 574.247 652.059 574.048 652.295 573.753C652.53 573.457 652.649 573.086 652.629 572.709C652.556 572.323 652.339 571.979 652.021 571.748C651.704 571.516 651.311 571.414 650.921 571.462H650.851ZM675.905 567.121C675.704 567.151 675.512 567.222 675.339 567.329C675.167 567.436 675.018 567.577 674.901 567.743C674.785 567.909 674.703 568.097 674.661 568.296C674.619 568.495 674.618 568.7 674.658 568.899C674.669 569.117 674.727 569.331 674.827 569.526C674.927 569.721 675.068 569.892 675.239 570.029C675.411 570.165 675.609 570.264 675.821 570.318C676.034 570.372 676.255 570.38 676.471 570.342C676.686 570.305 676.892 570.221 677.073 570.098C677.254 569.975 677.407 569.815 677.522 569.628C677.636 569.441 677.71 569.232 677.738 569.015C677.766 568.798 677.747 568.577 677.683 568.368C677.65 568.168 677.577 567.978 677.469 567.807C677.361 567.636 677.22 567.488 677.055 567.372C676.89 567.256 676.703 567.174 676.505 567.131C676.308 567.088 676.104 567.084 675.905 567.121ZM700.866 562.502C700.467 562.576 700.112 562.803 699.878 563.136C699.645 563.469 699.552 563.88 699.619 564.28C699.653 564.482 699.726 564.675 699.835 564.848C699.945 565.02 700.088 565.169 700.256 565.286C700.424 565.402 700.613 565.483 700.813 565.525C701.014 565.566 701.22 565.567 701.42 565.527C701.619 565.494 701.809 565.421 701.979 565.313C702.149 565.205 702.295 565.064 702.409 564.898C702.524 564.732 702.603 564.545 702.644 564.348C702.684 564.15 702.684 563.947 702.644 563.749C702.571 563.35 702.343 562.995 702.011 562.762C701.678 562.528 701.267 562.435 700.866 562.502ZM725.874 558.138C725.674 558.172 725.484 558.244 725.313 558.352C725.142 558.46 724.994 558.601 724.878 558.766C724.762 558.932 724.68 559.119 724.637 559.316C724.594 559.514 724.59 559.718 724.627 559.916C724.7 560.316 724.928 560.671 725.26 560.904C725.593 561.137 726.004 561.231 726.405 561.163C726.806 561.085 727.161 560.852 727.394 560.516C727.627 560.18 727.719 559.766 727.652 559.362C727.618 559.164 727.546 558.974 727.437 558.804C727.329 558.634 727.188 558.487 727.022 558.373C726.856 558.259 726.669 558.179 726.472 558.139C726.274 558.099 726.071 558.098 725.874 558.138ZM750.835 553.682C750.534 553.737 750.256 553.88 750.037 554.093C749.817 554.306 749.665 554.579 749.601 554.878C749.537 555.177 749.562 555.488 749.675 555.772C749.787 556.057 749.981 556.302 750.233 556.476C750.484 556.65 750.782 556.745 751.087 556.75C751.393 556.756 751.694 556.67 751.951 556.504C752.208 556.339 752.41 556.101 752.532 555.82C752.654 555.54 752.69 555.23 752.636 554.929C752.557 554.522 752.322 554.164 751.98 553.93C751.639 553.697 751.219 553.607 750.812 553.682H750.835ZM775.819 549.248C775.516 549.3 775.235 549.441 775.012 549.654C774.789 549.866 774.635 550.14 774.569 550.441C774.503 550.741 774.527 551.055 774.64 551.341C774.753 551.627 774.949 551.873 775.202 552.048C775.456 552.222 775.756 552.317 776.063 552.32C776.371 552.324 776.673 552.235 776.93 552.066C777.187 551.897 777.388 551.655 777.507 551.371C777.626 551.087 777.657 550.774 777.597 550.472C777.564 550.271 777.491 550.079 777.381 549.907C777.271 549.735 777.128 549.588 776.96 549.473C776.791 549.359 776.601 549.28 776.401 549.241C776.201 549.203 775.995 549.205 775.796 549.248H775.819ZM800.78 544.792C800.582 544.825 800.392 544.898 800.222 545.006C800.052 545.114 799.905 545.255 799.791 545.421C799.677 545.587 799.597 545.774 799.557 545.972C799.517 546.169 799.517 546.372 799.557 546.57C799.59 546.769 799.663 546.96 799.77 547.131C799.878 547.302 800.019 547.449 800.184 547.565C800.35 547.681 800.537 547.763 800.734 547.807C800.932 547.85 801.136 547.853 801.335 547.817C801.734 547.744 802.089 547.516 802.322 547.183C802.556 546.851 802.649 546.439 802.581 546.039C802.503 545.632 802.267 545.274 801.926 545.04C801.584 544.807 801.164 544.717 800.757 544.792H800.78ZM622.103 626.695C621.885 626.706 621.671 626.764 621.476 626.864C621.281 626.964 621.11 627.105 620.973 627.276C620.837 627.448 620.738 627.646 620.684 627.858C620.63 628.071 620.622 628.292 620.66 628.508C620.698 628.723 620.781 628.929 620.904 629.11C621.027 629.291 621.187 629.444 621.374 629.559C621.561 629.673 621.77 629.747 621.987 629.775C622.204 629.802 622.425 629.784 622.634 629.72C622.835 629.69 623.028 629.619 623.2 629.512C623.373 629.405 623.522 629.264 623.638 629.098C623.755 628.932 623.837 628.744 623.878 628.545C623.92 628.346 623.921 628.141 623.881 627.942C623.848 627.743 623.775 627.552 623.667 627.381C623.56 627.21 623.419 627.062 623.253 626.946C623.088 626.83 622.901 626.748 622.704 626.705C622.506 626.662 622.302 626.659 622.103 626.695ZM647.088 622.239C646.688 622.314 646.334 622.543 646.102 622.877C645.87 623.212 645.779 623.624 645.849 624.025C645.919 624.426 646.143 624.783 646.475 625.019C646.806 625.255 647.217 625.351 647.619 625.287C648.02 625.208 648.375 624.976 648.608 624.639C648.841 624.303 648.933 623.889 648.866 623.485C648.792 623.086 648.565 622.731 648.232 622.498C647.899 622.264 647.488 622.171 647.088 622.239ZM672.049 617.921C671.649 617.994 671.294 618.221 671.061 618.554C670.828 618.887 670.735 619.298 670.802 619.699C670.88 620.1 671.113 620.455 671.449 620.688C671.785 620.921 672.199 621.013 672.603 620.945C672.802 620.912 672.992 620.839 673.162 620.731C673.331 620.623 673.478 620.482 673.592 620.316C673.706 620.15 673.786 619.963 673.826 619.766C673.867 619.568 673.867 619.365 673.827 619.167C673.793 618.968 673.721 618.777 673.613 618.607C673.505 618.436 673.364 618.288 673.199 618.172C673.033 618.056 672.847 617.974 672.649 617.931C672.452 617.888 672.248 617.884 672.049 617.921ZM697.033 613.302C696.833 613.339 696.642 613.414 696.471 613.524C696.3 613.634 696.152 613.777 696.036 613.944C695.92 614.112 695.839 614.3 695.796 614.499C695.753 614.698 695.75 614.903 695.786 615.103C695.819 615.302 695.892 615.492 696 615.662C696.109 615.832 696.25 615.978 696.416 616.093C696.582 616.207 696.769 616.286 696.966 616.327C697.163 616.367 697.367 616.367 697.564 616.327C697.925 616.217 698.234 615.979 698.432 615.657C698.629 615.335 698.702 614.952 698.637 614.58C698.572 614.208 698.373 613.873 698.077 613.637C697.782 613.402 697.41 613.283 697.033 613.302ZM721.994 608.869C721.595 608.942 721.24 609.17 721.006 609.502C720.773 609.835 720.68 610.246 720.747 610.647C720.822 611.047 721.052 611.401 721.386 611.633C721.721 611.865 722.133 611.956 722.534 611.886C722.934 611.816 723.292 611.591 723.528 611.26C723.764 610.929 723.86 610.518 723.795 610.116C723.712 609.72 723.477 609.372 723.14 609.148C722.803 608.924 722.392 608.84 721.994 608.915V608.869ZM746.979 604.412C746.577 604.491 746.222 604.723 745.989 605.06C745.756 605.396 745.664 605.81 745.732 606.213C745.765 606.412 745.838 606.602 745.946 606.772C746.054 606.942 746.195 607.088 746.361 607.203C746.527 607.317 746.714 607.396 746.912 607.437C747.109 607.477 747.312 607.477 747.51 607.437C747.709 607.404 747.9 607.331 748.071 607.223C748.242 607.116 748.389 606.975 748.505 606.809C748.621 606.644 748.703 606.457 748.747 606.26C748.79 606.062 748.793 605.858 748.757 605.659C748.673 605.268 748.441 604.925 748.11 604.701C747.778 604.477 747.373 604.39 746.979 604.459V604.412ZM772.055 600.025C771.857 600.058 771.667 600.131 771.497 600.239C771.327 600.347 771.18 600.489 771.066 600.655C770.952 600.82 770.872 601.008 770.832 601.205C770.792 601.402 770.792 601.606 770.832 601.803C770.883 602.106 771.024 602.388 771.237 602.61C771.449 602.833 771.723 602.987 772.024 603.053C772.324 603.12 772.638 603.095 772.924 602.982C773.21 602.869 773.456 602.673 773.631 602.42C773.805 602.166 773.9 601.867 773.903 601.559C773.907 601.251 773.818 600.949 773.649 600.692C773.48 600.435 773.238 600.234 772.954 600.116C772.67 599.997 772.357 599.965 772.055 600.025ZM797.04 595.569C796.638 595.647 796.283 595.879 796.05 596.216C795.817 596.552 795.725 596.966 795.793 597.37C795.902 597.734 796.142 598.046 796.467 598.244C796.792 598.443 797.179 598.515 797.553 598.446C797.928 598.378 798.264 598.173 798.497 597.872C798.73 597.572 798.844 597.195 798.818 596.815C798.782 596.606 798.704 596.405 798.588 596.227C798.472 596.049 798.32 595.896 798.143 595.779C797.965 595.662 797.765 595.583 797.555 595.547C797.346 595.511 797.131 595.518 796.924 595.569H797.04ZM631.778 608.015C631.417 608.125 631.109 608.363 630.911 608.685C630.713 609.007 630.64 609.39 630.706 609.762C630.771 610.134 630.97 610.469 631.266 610.705C631.561 610.94 631.932 611.059 632.309 611.039C632.671 610.929 632.979 610.691 633.177 610.369C633.374 610.047 633.448 609.664 633.382 609.292C633.317 608.92 633.118 608.585 632.822 608.349C632.527 608.114 632.156 607.995 631.778 608.015ZM656.601 603.558C656.399 603.591 656.206 603.665 656.034 603.774C655.861 603.883 655.712 604.026 655.596 604.194C655.479 604.362 655.398 604.552 655.357 604.752C655.315 604.952 655.314 605.159 655.354 605.359C655.387 605.558 655.46 605.748 655.568 605.918C655.676 606.088 655.818 606.234 655.984 606.348C656.149 606.462 656.337 606.542 656.534 606.582C656.731 606.623 656.935 606.623 657.132 606.583C657.493 606.473 657.802 606.234 658 605.913C658.197 605.591 658.27 605.208 658.205 604.836C658.14 604.464 657.94 604.128 657.645 603.893C657.35 603.658 656.978 603.538 656.601 603.558ZM681.562 599.125C681.343 599.136 681.13 599.194 680.935 599.294C680.74 599.394 680.569 599.534 680.432 599.706C680.296 599.877 680.197 600.075 680.143 600.288C680.089 600.5 680.081 600.721 680.119 600.937C680.156 601.153 680.24 601.358 680.363 601.539C680.486 601.721 680.646 601.873 680.833 601.988C681.02 602.103 681.228 602.176 681.446 602.204C681.663 602.232 681.884 602.213 682.093 602.15C682.455 602.039 682.763 601.801 682.961 601.479C683.158 601.157 683.231 600.774 683.166 600.402C683.101 600.03 682.902 599.695 682.606 599.459C682.311 599.224 681.939 599.105 681.562 599.125ZM706.547 594.668C706.328 594.679 706.114 594.737 705.919 594.837C705.724 594.937 705.553 595.078 705.416 595.249C705.28 595.421 705.181 595.619 705.127 595.831C705.073 596.043 705.065 596.265 705.103 596.481C705.141 596.696 705.224 596.902 705.347 597.083C705.47 597.264 705.631 597.417 705.817 597.532C706.004 597.646 706.213 597.72 706.43 597.748C706.647 597.775 706.868 597.757 707.078 597.693C707.439 597.583 707.747 597.344 707.945 597.023C708.143 596.701 708.216 596.318 708.15 595.946C708.085 595.574 707.886 595.238 707.591 595.003C707.295 594.768 706.924 594.648 706.547 594.668ZM731.554 590.212C731.154 590.285 730.799 590.512 730.566 590.845C730.333 591.178 730.24 591.589 730.307 591.989C730.386 592.391 730.618 592.746 730.954 592.979C731.291 593.212 731.705 593.304 732.108 593.236C732.473 593.127 732.784 592.887 732.983 592.562C733.181 592.237 733.253 591.85 733.185 591.476C733.116 591.102 732.912 590.765 732.611 590.532C732.31 590.299 731.934 590.185 731.554 590.212ZM756.538 585.755C756.139 585.828 755.784 586.056 755.55 586.388C755.317 586.721 755.224 587.132 755.291 587.533C755.322 587.734 755.393 587.926 755.5 588.099C755.607 588.271 755.747 588.42 755.914 588.537C756.08 588.653 756.268 588.735 756.467 588.777C756.665 588.819 756.87 588.82 757.069 588.78C757.431 588.67 757.739 588.431 757.937 588.109C758.134 587.788 758.207 587.404 758.142 587.032C758.077 586.66 757.878 586.325 757.582 586.09C757.287 585.855 756.915 585.735 756.538 585.755ZM781.499 581.322C781.1 581.395 780.745 581.622 780.512 581.955C780.278 582.288 780.185 582.699 780.253 583.1C780.328 583.499 780.557 583.854 780.891 584.086C781.226 584.317 781.638 584.408 782.039 584.338C782.44 584.269 782.797 584.044 783.033 583.712C783.269 583.381 783.365 582.97 783.301 582.568C783.265 582.369 783.189 582.178 783.079 582.008C782.968 581.838 782.825 581.692 782.657 581.578C782.489 581.464 782.301 581.385 782.102 581.345C781.903 581.305 781.698 581.305 781.499 581.345V581.322ZM806.484 576.865C806.084 576.938 805.729 577.166 805.496 577.498C805.263 577.831 805.17 578.242 805.237 578.643C805.267 578.844 805.338 579.036 805.445 579.209C805.552 579.381 805.693 579.53 805.859 579.647C806.025 579.764 806.213 579.845 806.412 579.887C806.611 579.929 806.816 579.93 807.015 579.89C807.214 579.856 807.405 579.784 807.576 579.676C807.747 579.568 807.895 579.427 808.011 579.262C808.127 579.097 808.209 578.91 808.252 578.712C808.295 578.515 808.298 578.311 808.262 578.112C808.183 577.717 807.954 577.367 807.622 577.139C807.289 576.91 806.881 576.82 806.484 576.888V576.865ZM637.366 640.088C637.168 640.121 636.978 640.194 636.808 640.302C636.638 640.41 636.491 640.551 636.377 640.717C636.263 640.883 636.183 641.07 636.143 641.268C636.103 641.465 636.103 641.668 636.143 641.866C636.176 642.065 636.249 642.256 636.357 642.427C636.464 642.598 636.605 642.745 636.771 642.861C636.936 642.978 637.123 643.059 637.32 643.103C637.518 643.146 637.722 643.149 637.921 643.113C638.32 643.039 638.675 642.812 638.908 642.479C639.142 642.147 639.235 641.735 639.167 641.335C639.084 640.937 638.849 640.588 638.514 640.36C638.178 640.132 637.767 640.042 637.366 640.111V640.088ZM662.351 635.631C661.951 635.706 661.597 635.936 661.365 636.27C661.133 636.604 661.042 637.017 661.112 637.417C661.182 637.818 661.407 638.175 661.738 638.412C662.069 638.648 662.48 638.744 662.882 638.679C663.282 638.604 663.636 638.375 663.868 638.04C664.1 637.706 664.19 637.294 664.121 636.893C664.051 636.492 663.826 636.135 663.495 635.899C663.163 635.663 662.752 635.567 662.351 635.631ZM687.335 631.198C687.134 631.228 686.942 631.299 686.769 631.406C686.597 631.513 686.448 631.654 686.331 631.82C686.214 631.986 686.133 632.174 686.091 632.373C686.049 632.572 686.048 632.777 686.088 632.976C686.121 633.175 686.194 633.366 686.302 633.537C686.41 633.708 686.551 633.855 686.716 633.971C686.882 634.088 687.068 634.169 687.266 634.213C687.463 634.256 687.667 634.259 687.866 634.223C688.227 634.113 688.536 633.874 688.734 633.552C688.931 633.23 689.004 632.847 688.939 632.475C688.873 632.103 688.674 631.768 688.379 631.533C688.084 631.297 687.712 631.178 687.335 631.198ZM712.296 626.741C711.896 626.816 711.542 627.046 711.31 627.38C711.078 627.714 710.987 628.127 711.057 628.527C711.127 628.928 711.352 629.285 711.683 629.522C712.015 629.758 712.426 629.854 712.827 629.789C713.227 629.714 713.581 629.485 713.813 629.15C714.045 628.816 714.136 628.404 714.066 628.003C713.996 627.602 713.771 627.245 713.44 627.009C713.109 626.773 712.698 626.677 712.296 626.741ZM737.281 622.308C737.08 622.338 736.887 622.409 736.715 622.516C736.542 622.623 736.393 622.764 736.277 622.93C736.16 623.096 736.078 623.284 736.037 623.483C735.995 623.682 735.994 623.887 736.034 624.086C736.084 624.389 736.224 624.669 736.435 624.892C736.646 625.115 736.918 625.271 737.218 625.338C737.517 625.406 737.83 625.383 738.116 625.273C738.403 625.162 738.65 624.969 738.826 624.718C739.002 624.467 739.1 624.169 739.106 623.862C739.112 623.555 739.027 623.253 738.862 622.994C738.696 622.736 738.457 622.533 738.176 622.411C737.894 622.288 737.582 622.252 737.281 622.308ZM762.242 617.921C762.042 617.957 761.851 618.032 761.68 618.143C761.509 618.253 761.361 618.396 761.245 618.563C761.129 618.73 761.048 618.918 761.005 619.117C760.962 619.316 760.958 619.522 760.995 619.722C761.031 619.922 761.107 620.113 761.217 620.284C761.327 620.455 761.47 620.602 761.637 620.718C761.804 620.834 761.993 620.916 762.192 620.959C762.39 621.002 762.596 621.005 762.796 620.969C763.2 620.895 763.559 620.664 763.792 620.326C764.026 619.988 764.116 619.572 764.043 619.167C763.969 618.763 763.738 618.405 763.4 618.171C763.063 617.937 762.646 617.847 762.242 617.921ZM787.226 613.487C787.027 613.521 786.836 613.593 786.665 613.701C786.494 613.809 786.346 613.95 786.23 614.115C786.114 614.281 786.032 614.467 785.989 614.665C785.946 614.862 785.943 615.066 785.979 615.265C786.089 615.626 786.328 615.935 786.65 616.133C786.972 616.33 787.355 616.403 787.727 616.338C788.099 616.273 788.434 616.073 788.669 615.778C788.904 615.483 789.024 615.111 789.004 614.734C788.976 614.531 788.907 614.335 788.802 614.159C788.697 613.983 788.557 613.829 788.391 613.709C788.224 613.588 788.036 613.502 787.836 613.456C787.635 613.41 787.428 613.405 787.226 613.441V613.487ZM811.171 609.723C811.435 609.556 811.676 609.354 811.887 609.123C811.598 609.231 811.348 609.424 811.171 609.677V609.723Z" fill="white"/>
<path opacity="0.1" d="M667.638 504.06C668.067 506.461 667.773 508.935 666.795 511.17C665.817 513.404 664.198 515.299 662.143 516.613C660.088 517.927 657.69 518.602 655.251 518.553C652.812 518.504 650.443 517.733 648.443 516.337C646.443 514.941 644.901 512.983 644.014 510.711C643.127 508.439 642.933 505.954 643.458 503.572C643.983 501.19 645.202 499.017 646.962 497.328C648.722 495.639 650.944 494.51 653.345 494.084C656.563 493.513 659.876 494.243 662.556 496.114C665.237 497.984 667.064 500.842 667.638 504.06Z" fill="black"/>
<path opacity="0.1" d="M748.618 489.651C749.047 492.052 748.753 494.527 747.775 496.761C746.797 498.996 745.178 500.89 743.123 502.204C741.068 503.518 738.67 504.194 736.231 504.144C733.792 504.095 731.423 503.324 729.422 501.928C727.422 500.532 725.881 498.574 724.994 496.302C724.106 494.03 723.913 491.546 724.438 489.164C724.962 486.781 726.182 484.608 727.942 482.92C729.702 481.231 731.923 480.102 734.325 479.676C737.543 479.105 740.856 479.834 743.536 481.705C746.216 483.575 748.044 486.433 748.618 489.651Z" fill="black"/>
<path d="M663.736 504.775C664.026 506.403 663.826 508.08 663.162 509.594C662.499 511.108 661.402 512.391 660.009 513.281C658.616 514.172 656.991 514.629 655.338 514.596C653.685 514.562 652.08 514.04 650.724 513.094C649.368 512.148 648.323 510.822 647.721 509.282C647.119 507.743 646.988 506.059 647.342 504.445C647.697 502.83 648.522 501.357 649.714 500.212C650.906 499.066 652.411 498.3 654.038 498.01C655.119 497.817 656.228 497.839 657.3 498.074C658.373 498.31 659.388 498.755 660.289 499.383C661.19 500.011 661.958 500.811 662.549 501.736C663.141 502.661 663.544 503.694 663.736 504.775Z" fill="#263238"/>
<path d="M744.716 490.344C745.005 491.971 744.806 493.648 744.142 495.162C743.479 496.676 742.381 497.959 740.988 498.85C739.596 499.74 737.97 500.197 736.318 500.164C734.665 500.131 733.059 499.608 731.703 498.662C730.348 497.717 729.303 496.39 728.701 494.851C728.099 493.311 727.967 491.628 728.322 490.013C728.677 488.399 729.502 486.926 730.694 485.78C731.886 484.635 733.39 483.868 735.018 483.578C736.099 483.385 737.207 483.407 738.28 483.643C739.352 483.878 740.368 484.323 741.269 484.951C742.169 485.58 742.937 486.379 743.529 487.304C744.12 488.23 744.524 489.262 744.716 490.344Z" fill="#263238"/>
<path d="M733.217 493.807L732.131 490.367C689.667 355.816 645.771 216.694 598.943 212.029L599.405 207.411C649.258 212.376 691.653 346.718 736.542 488.958L737.627 492.399L733.217 493.807Z" fill="#263238"/>
<path d="M588.206 216.925C586.682 221.266 562.344 247.797 542.14 244.634C535.559 243.595 539.646 207.434 539.646 207.434L539.323 204.687L535.028 166.356L582.041 142.942L588.806 139.894C588.806 139.894 589.291 150.469 589.753 163.631C589.753 164.231 589.753 164.855 589.753 165.501C589.753 166.24 589.868 166.956 589.868 167.649C589.868 169.612 590.053 171.62 590.099 173.606C590.099 175.13 590.099 176.608 590.099 178.224C590.099 179.841 590.099 181.388 590.099 182.981C590.237 194.325 589.605 205.666 588.206 216.925Z" fill="#D3766A"/>
<path d="M589.753 163.631C584.827 173.712 577.763 182.599 569.054 189.673C560.345 196.747 550.199 201.839 539.323 204.594L535.028 166.263L582.041 142.849L588.806 139.801C588.806 139.801 589.291 150.469 589.753 163.631Z" fill="#263238"/>
<path d="M490.162 101.678C477.578 168.18 515.978 183.235 530.317 185.937C543.34 188.384 588.044 195.173 607.394 130.242C626.745 65.3101 599.867 38.5016 570.449 31.3203C541.031 24.139 502.77 35.1765 490.162 101.678Z" fill="#D3766A"/>
<path d="M512.537 91.1257C514.083 91.0867 515.625 90.9556 517.155 90.7331C518.795 90.8258 520.42 90.3709 521.773 89.44C522.163 89.0729 522.412 88.5821 522.479 88.0515C522.547 87.5208 522.428 86.9833 522.143 86.5306C521.474 85.706 520.597 85.0747 519.602 84.7013C518.608 84.3279 517.532 84.2261 516.486 84.4062C514.311 84.4185 512.22 85.2419 510.621 86.7153C510.242 87.0777 509.984 87.5473 509.881 88.061C509.777 88.5746 509.834 89.1076 510.043 89.5881C510.251 90.0687 510.602 90.4737 511.048 90.7486C511.494 91.0235 512.014 91.1551 512.537 91.1257Z" fill="#263238"/>
<path d="M559.619 99.4845C558.136 99.0011 556.679 98.4385 555.255 97.7989C553.641 97.4191 552.197 96.5184 551.145 95.2358C550.874 94.7705 550.774 94.2249 550.863 93.6936C550.951 93.1623 551.223 92.6787 551.63 92.3264C552.505 91.7248 553.525 91.367 554.584 91.2899C555.643 91.2128 556.704 91.4191 557.657 91.8877C559.734 92.5497 561.494 93.9558 562.598 95.8362C562.819 96.2813 562.906 96.7806 562.851 97.2743C562.795 97.768 562.598 98.2352 562.284 98.62C561.97 99.0048 561.552 99.291 561.079 99.4443C560.606 99.5976 560.1 99.6116 559.619 99.4845Z" fill="#263238"/>
<path d="M547.127 113.986C547.127 113.824 547.451 114.263 547.427 114.447C546.596 119.066 546.388 124.307 550.291 126.455C550.406 126.455 550.291 126.732 550.291 126.686C545.28 125.231 545.626 118.142 547.127 113.986Z" fill="#263238"/>
<path d="M551.93 109.922C559.342 110.453 557.68 125.254 550.822 124.746C543.964 124.238 545.765 109.391 551.93 109.922Z" fill="#263238"/>
<path d="M554.747 110.938C555.925 111.931 557.056 113.547 558.58 113.87C560.104 114.193 561.882 112.854 563.199 111.561C563.337 111.423 563.429 111.561 563.429 111.769C563.152 114.609 561.744 117.38 558.65 117.472C555.555 117.565 554.032 114.817 553.731 111.884C553.708 111.284 554.262 110.545 554.747 110.938Z" fill="#263238"/>
<path d="M519.257 108.975C519.257 108.813 518.864 109.16 518.864 109.344C518.518 113.962 517.363 119.158 513.068 120.266C512.93 120.266 512.93 120.52 513.068 120.52C518.217 120.336 519.672 113.385 519.257 108.975Z" fill="#263238"/>
<path d="M515.747 103.779C508.427 102.44 506.326 117.172 513.091 118.396C519.857 119.62 521.774 104.888 515.747 103.779Z" fill="#263238"/>
<path d="M512.445 104.311C511.175 104.911 509.812 106.158 508.404 106.065C506.995 105.973 505.818 104.172 505.01 102.486C505.01 102.325 504.779 102.486 504.755 102.625C504.271 105.419 504.756 108.49 507.411 109.414C510.066 110.337 512.029 108.121 513.045 105.396C513.23 104.911 512.953 104.057 512.445 104.311Z" fill="#263238"/>
<path d="M539.623 150.862C538.445 151.878 537.314 153.286 535.582 153.309C533.87 153.176 532.207 152.671 530.71 151.831C530.678 151.816 530.642 151.812 530.608 151.818C530.574 151.825 530.542 151.843 530.519 151.869C530.495 151.895 530.481 151.928 530.478 151.963C530.475 151.998 530.483 152.033 530.502 152.062C531.094 153.012 531.934 153.782 532.93 154.29C533.927 154.799 535.043 155.026 536.159 154.949C537.115 154.765 537.995 154.303 538.689 153.621C539.383 152.94 539.861 152.068 540.061 151.116C540.131 150.839 539.784 150.723 539.623 150.862Z" fill="#263238"/>
<path d="M522.674 130.334C522.674 130.334 520.688 138.092 520.365 141.325C520.365 141.625 531.472 143.634 538.076 137.146C538.353 136.869 537.96 136.476 537.637 136.638C533.234 139.043 528.171 139.958 523.205 139.247C523.09 138.323 526.599 127.517 526.115 127.424C523.584 127.333 521.052 127.582 518.587 128.163C521.889 114.078 527.454 100.616 530.548 86.5998C530.588 86.4896 530.582 86.368 530.532 86.2619C530.483 86.1558 530.393 86.0739 530.282 86.0341C530.172 85.9943 530.051 85.9999 529.945 86.0497C529.839 86.0995 529.757 86.1894 529.717 86.2996C522.905 99.9925 518.749 116.11 514.939 130.588C514.361 132.32 521.289 130.703 522.674 130.334Z" fill="#263238"/>
<path d="M523.044 140.725C524.68 143.524 527.01 145.854 529.809 147.49C531.358 148.34 533.136 148.679 534.889 148.46C538.722 147.975 539.23 144.581 538.93 141.533C538.741 139.958 538.377 138.409 537.845 136.915C533.447 139.738 528.258 141.074 523.044 140.725Z" fill="#263238"/>
<path d="M529.809 147.49C531.358 148.34 533.136 148.679 534.889 148.46C538.722 147.975 539.23 144.581 538.93 141.533C534.912 141.487 530.64 143.68 529.809 147.49Z" fill="#FF98B9"/>
<path d="M601.437 138.069C587.929 137.908 588.714 107.058 588.714 107.058C588.714 107.058 537.545 92.5573 539.069 45.8676C539.069 45.8676 525.353 73.8768 493.926 83.0901C493.926 83.0901 498.244 26.4482 544.195 28.5725C544.195 28.5725 590.885 14.718 613.467 57.9441C636.05 101.17 610.419 138.162 601.437 138.069Z" fill="#263238"/>
<path d="M539.346 42.427C537.699 49.4386 537.573 56.7217 538.976 63.7861C540.279 70.9618 543.046 77.7924 547.104 83.852C548.112 85.3675 549.215 86.8174 550.406 88.1931L552.092 90.3174C552.715 90.9871 553.385 91.6105 554.031 92.234C555.371 93.4809 556.641 94.774 558.003 95.9516C559.365 97.1293 560.913 98.0991 562.367 99.1382C563.106 99.6693 563.822 100.2 564.676 100.708L566.985 102.001L571.604 104.588C574.883 106.019 578.254 107.266 581.579 108.444C578.531 106.597 575.344 105.073 572.343 103.202L567.978 100.293L565.808 98.838C565.115 98.3069 564.469 97.7065 563.799 97.1524C562.483 96.0209 561.143 94.8433 559.804 93.8273C558.465 92.8113 557.38 91.3334 556.179 90.1096L554.378 88.2624L552.785 86.2073C551.676 84.8862 550.651 83.4982 549.713 82.0509C545.861 76.3134 543.025 69.9551 541.331 63.255C540.444 59.8853 539.834 56.4487 539.507 52.9795C539.153 49.4731 539.099 45.9427 539.346 42.427Z" fill="#263238"/>
<path d="M546.342 139.709C540.736 137.861 536.091 133.864 533.429 128.596C530.766 123.327 530.303 117.217 532.141 111.607C533.443 107.65 535.83 104.137 539.029 101.468C542.229 98.8 546.113 97.0832 550.24 96.513C554.367 95.9429 558.571 96.5424 562.374 98.2434C566.177 99.9444 569.427 102.679 571.753 106.135C574.079 109.591 575.389 113.631 575.532 117.795C575.676 121.959 574.649 126.079 572.567 129.688C570.484 133.296 567.431 136.248 563.755 138.208C560.078 140.167 555.925 141.055 551.769 140.771C549.923 140.641 548.101 140.284 546.342 139.709ZM534.981 112.531C533.787 116.154 533.694 120.05 534.714 123.726C535.734 127.402 537.822 130.692 540.714 133.181C543.605 135.67 547.17 137.245 550.956 137.708C554.743 138.17 558.582 137.498 561.987 135.778C565.392 134.058 568.21 131.366 570.085 128.043C571.96 124.721 572.806 120.917 572.518 117.113C572.23 113.309 570.82 109.676 568.467 106.673C566.113 103.671 562.921 101.434 559.296 100.247C557.799 99.7542 556.249 99.4441 554.678 99.3229C550.394 99.0234 546.132 100.159 542.566 102.551C538.999 104.943 536.331 108.454 534.981 112.531Z" fill="#455A64"/>
<path d="M502.1 131.05C493.118 129.364 487.645 118.188 489.908 106.135C490.835 100.661 493.451 95.615 497.39 91.7029C498.977 89.9207 500.999 88.5789 503.258 87.8077C505.516 87.0364 507.936 86.8618 510.282 87.3009C512.629 87.7399 514.822 88.7777 516.649 90.3136C518.476 91.8494 519.875 93.8313 520.711 96.0671C522.972 101.139 523.594 106.789 522.489 112.231C520.342 123.638 512.052 131.812 503.555 131.234C503.066 131.207 502.58 131.145 502.1 131.05ZM499.445 93.758C495.96 97.2364 493.651 101.717 492.841 106.573C490.878 117.034 495.288 126.662 502.654 128.025C510.02 129.387 517.594 122.044 519.557 111.584C520.556 106.762 520.023 101.749 518.033 97.2447C517.32 95.4832 516.195 93.9181 514.753 92.6807C513.31 91.4433 511.593 90.5696 509.743 90.1327C509.369 90.0625 508.991 90.0162 508.612 89.9942C506.906 89.9534 505.211 90.2668 503.633 90.9147C502.056 91.5625 500.629 92.5307 499.445 93.758Z" fill="#455A64"/>
<path d="M532.187 114.24L534.127 112.646C531.818 109.783 525.884 105.396 520.48 109.391L521.981 111.399C526.807 107.82 531.91 113.986 532.187 114.24Z" fill="#455A64"/>
<path d="M620.302 135.668L622.611 134.952C622.288 133.821 619.171 123.961 613.837 122.021C608.849 120.243 575.206 117.149 573.774 117.034L573.543 119.527C583.195 120.405 609.126 122.991 612.982 124.4C616.839 125.808 619.494 133.012 620.302 135.668Z" fill="#455A64"/>
<path d="M591.947 131.304C591.947 131.304 608.78 111.746 617.785 117.957C626.791 124.169 612.728 153.517 601.183 156.565C599.719 157.042 598.174 157.222 596.64 157.094C595.105 156.965 593.612 156.531 592.248 155.816C590.884 155.102 589.677 154.122 588.697 152.934C587.717 151.746 586.985 150.374 586.543 148.899L591.947 131.304Z" fill="#D3766A"/>
<path d="M613.606 126.27C613.649 126.27 613.69 126.287 613.72 126.317C613.75 126.348 613.768 126.389 613.768 126.432C613.768 126.474 613.75 126.516 613.72 126.546C613.69 126.576 613.649 126.593 613.606 126.593C605.432 128.902 600.56 135.83 596.888 143.08C599.52 140.425 602.869 139.155 606.471 142.318C606.656 142.48 606.471 142.78 606.217 142.711C604.886 142.117 603.402 141.958 601.976 142.257C600.55 142.555 599.254 143.296 598.274 144.373C596.624 146.17 595.169 148.136 593.932 150.238C593.494 150.908 592.27 150.4 592.616 149.638C592.612 149.576 592.612 149.515 592.616 149.453C593.563 139.432 602.753 126.201 613.606 126.27Z" fill="#263238"/>
<path d="M653.299 506.923C652.791 505.26 601.645 340.114 591.739 293.609C584.996 262.044 579.547 222.028 591.739 210.736C593.478 209.192 595.611 208.158 597.902 207.751C600.192 207.343 602.55 207.577 604.716 208.427L603.4 212.838C601.99 212.253 600.447 212.068 598.939 212.305C597.432 212.541 596.019 213.189 594.856 214.177C586.682 221.728 587.167 250.36 596.172 292.686C606.032 338.983 657.132 503.898 657.64 505.56L653.299 506.923Z" fill="#263238"/>
<path d="M624.191 443.943L600.162 267.611L575.819 270.929L599.848 447.26L624.191 443.943Z" fill="#D4550B"/>
<path d="M599.821 447.244L575.792 270.912L512.279 279.567L536.308 455.899L599.821 447.244Z" fill="#D4550B"/>
<path opacity="0.1" d="M599.821 447.244L575.792 270.912L512.279 279.567L536.308 455.899L599.821 447.244Z" fill="black"/>
<path d="M621.631 425.214L619.393 408.787L595.049 412.104L597.287 428.532L621.631 425.214Z" fill="#455A64"/>
<path d="M617.932 398.001L617.065 391.64L592.722 394.958L593.589 401.318L617.932 398.001Z" fill="#455A64"/>
<path d="M587.771 453.119L561.952 263.654L531.522 267.801L557.341 457.266L587.771 453.119Z" fill="#C7C7C7"/>
<path d="M566.072 293.883L563.562 275.465L533.133 279.612L535.643 298.03L566.072 293.883Z" fill="#D4550B"/>
<path d="M568.037 308.395L566.99 300.707L536.56 304.854L537.608 312.541L568.037 308.395Z" fill="#D4550B"/>
<path d="M584.651 430.099L582.141 411.681L551.711 415.828L554.221 434.246L584.651 430.099Z" fill="#D4550B"/>
<path d="M499.826 465.298L557.344 457.46L531.501 267.812L473.982 275.651L499.826 465.298Z" fill="#EBEBEB"/>
<path d="M555.34 457.692L530.626 282.928L505.365 286.5L530.079 461.265L555.34 457.692Z" fill="#D4550B"/>
<path d="M525.831 458.781L501.996 283.868L437.865 292.607L461.701 467.52L525.831 458.781Z" fill="#D4550B"/>
<path opacity="0.1" d="M525.831 458.781L501.996 283.868L437.865 292.607L461.701 467.52L525.831 458.781Z" fill="black"/>
<path d="M548.502 455.679L524.667 280.766L504.624 283.497L528.46 458.41L548.502 455.679Z" fill="white"/>
<path d="M510.297 294.233C518.218 346.926 526.138 404.954 532.58 457.832C524.637 405.161 516.74 347.111 510.297 294.233Z" fill="#DBDBDB"/>
<path d="M514.223 293.702C522.166 346.372 530.063 404.538 536.506 457.301C528.562 404.63 520.665 346.58 514.223 293.702Z" fill="#DBDBDB"/>
<path d="M518.056 293.171C525.999 345.841 533.919 403.891 540.339 456.769C532.395 404.099 524.498 346.049 518.056 293.171Z" fill="#DBDBDB"/>
<path d="M522.074 292.64C530.017 345.31 537.937 403.36 544.379 456.238C536.436 403.568 528.516 345.402 522.074 292.64Z" fill="#DBDBDB"/>
<path d="M371.083 446.125C350.486 421.233 384.937 394.032 407.497 394.586C460.444 395.879 540.847 422.295 582.479 445.917C595.872 453.537 567.586 547.517 551.376 544.538C534.404 541.467 412.854 496.67 371.083 446.125Z" fill="#D3766A"/>
<path d="M677.822 454.968C679.969 466.514 669.255 472.194 669.255 472.194C673.187 476.51 675.49 482.064 675.766 487.896C675.766 498.194 659.603 502.697 659.603 502.697C662.753 508.028 664.233 514.181 663.852 520.362C662.836 530.221 647.203 537.079 647.203 537.079C647.4 543.574 645.243 549.921 641.13 554.952C629.585 567.975 603.123 564.188 586.867 559.57C567.378 554.282 521.081 532.877 512.098 529.367L532.095 424.812C532.095 424.812 610.096 415.206 629.261 421.025C645.379 426.059 675.42 442.037 677.822 454.968Z" fill="#D3766A"/>
<path d="M668.978 471.64C653.091 462.404 635.288 458.178 617.762 453.167C617.723 453.157 617.682 453.154 617.641 453.159C617.601 453.164 617.562 453.178 617.526 453.198C617.491 453.218 617.46 453.246 617.435 453.278C617.41 453.31 617.392 453.347 617.381 453.387C617.371 453.426 617.368 453.467 617.373 453.508C617.378 453.548 617.392 453.587 617.412 453.623C617.432 453.658 617.46 453.689 617.492 453.714C617.524 453.739 617.561 453.757 617.601 453.768C635.08 458.686 651.382 466.976 668.631 472.564C668.754 472.609 668.89 472.605 669.009 472.551C669.128 472.497 669.22 472.397 669.266 472.275C669.312 472.152 669.308 472.017 669.254 471.898C669.199 471.779 669.1 471.686 668.978 471.64Z" fill="#263238"/>
<path d="M659.464 501.242C655.651 499.475 651.622 498.217 647.48 497.502C643.139 496.455 638.79 495.493 634.434 494.615C625.682 492.814 616.908 491.221 608.087 489.997C607.695 489.997 607.51 490.505 607.926 490.598C616.631 492.399 625.313 494.315 633.926 496.486C638.244 497.571 642.539 498.679 646.857 499.834C650.843 501.157 654.962 502.04 659.141 502.466C659.289 502.474 659.436 502.431 659.556 502.343C659.676 502.255 659.762 502.129 659.8 501.986C659.838 501.842 659.825 501.69 659.764 501.554C659.703 501.419 659.597 501.309 659.464 501.242Z" fill="#263238"/>
<path d="M646.834 537.103C643.716 535.232 639.375 534.932 635.842 534.285C631.848 533.547 627.853 532.808 623.881 531.976C615.892 530.429 607.926 528.882 600.005 527.035C599.613 527.035 599.428 527.566 599.821 527.658C607.856 529.552 615.869 531.561 623.928 533.385C627.876 534.285 631.848 535.163 635.796 536.017C639.167 536.733 643.301 538.026 646.764 537.449C646.797 537.436 646.827 537.416 646.85 537.389C646.873 537.362 646.888 537.33 646.895 537.295C646.902 537.26 646.9 537.224 646.889 537.191C646.879 537.157 646.859 537.127 646.834 537.103Z" fill="#263238"/>
<path d="M469.565 403.753C457.004 401.444 444.442 399.135 431.788 397.334C419.135 395.532 406.389 394.262 393.827 397.08C406.181 393.062 419.343 393.824 432.019 395.648C444.727 397.365 457.281 400.075 469.565 403.753Z" fill="#263238"/>
<path d="M747.81 409.064C774.318 426.544 749.726 458.34 728.344 464.62C678.214 479.375 586.058 483.832 540.131 473.857C525.353 470.647 542.948 366.392 559.042 364.291C575.783 362.12 694.008 373.573 747.81 409.064Z" fill="#D3766A"/>
<path d="M442.087 342.724C435.691 353.115 443.957 362.651 443.957 362.651C438.521 365.356 434.206 369.883 431.765 375.443C427.909 385.442 441.902 395.856 441.902 395.856C436.842 399.838 433.1 405.254 431.165 411.396C428.463 421.325 441.071 433.84 441.071 433.84C438.444 440.07 438.149 447.038 440.24 453.467C446.52 470.393 473.698 476.558 491.04 478.359C511.821 480.53 564.93 477.089 574.859 477.043L594.579 368.124C594.579 368.124 522.674 329.608 501.892 328.107C484.366 326.814 449.268 331.086 442.087 342.724Z" fill="#D3766A"/>
<path d="M444.419 362.212C463.331 359.118 482.15 361.774 501.061 363.344C501.135 363.363 501.2 363.407 501.247 363.467C501.293 363.528 501.319 363.602 501.319 363.679C501.319 363.755 501.293 363.829 501.247 363.89C501.2 363.95 501.135 363.994 501.061 364.013C482.242 362.212 463.331 364.175 444.511 363.136C444.451 363.142 444.39 363.136 444.331 363.119C444.273 363.101 444.219 363.072 444.171 363.033C444.124 362.995 444.085 362.947 444.056 362.894C444.027 362.84 444.01 362.781 444.003 362.72C443.997 362.66 444.003 362.598 444.021 362.54C444.039 362.482 444.067 362.427 444.106 362.38C444.145 362.333 444.192 362.294 444.246 362.265C444.3 362.236 444.358 362.218 444.419 362.212Z" fill="#263238"/>
<path d="M442.572 394.493C446.939 394.201 451.326 394.489 455.618 395.348C460.236 395.948 464.855 396.664 469.334 397.426C478.571 398.965 487.676 400.728 496.651 402.714C497.066 402.714 497.02 403.43 496.651 403.36C487.553 401.859 478.409 400.474 469.242 399.342L455.387 397.749C451.017 397.567 446.68 396.901 442.456 395.763C442.326 395.708 442.216 395.613 442.143 395.491C442.071 395.369 442.038 395.228 442.051 395.086C442.064 394.945 442.121 394.812 442.215 394.705C442.308 394.598 442.433 394.524 442.572 394.493Z" fill="#263238"/>
<path d="M441.44 433.909C445.158 433.263 449.499 434.602 453.147 435.295L465.617 437.604C473.929 439.082 482.265 440.56 490.624 441.76C490.71 441.76 490.792 441.794 490.853 441.855C490.913 441.916 490.947 441.998 490.947 442.084C490.947 442.169 490.913 442.252 490.853 442.312C490.792 442.373 490.71 442.407 490.624 442.407C482.126 441.229 473.606 440.098 465.224 438.943C461.045 438.343 456.888 437.72 452.709 437.05C449.176 436.496 444.696 436.195 441.556 434.348C441.502 434.352 441.449 434.337 441.405 434.306C441.362 434.274 441.33 434.229 441.317 434.177C441.303 434.125 441.308 434.07 441.33 434.021C441.353 433.972 441.392 433.933 441.44 433.909Z" fill="#263238"/>
<path d="M718.277 394.309C690.268 384.495 661.935 374.612 632.31 371.218C662.166 372.211 691.145 382.278 718.277 394.309Z" fill="#263238"/>
<path d="M444.35 340.068C441.572 343.114 440.032 347.087 440.032 351.21C440.032 355.332 441.572 359.305 444.35 362.351L444.696 362.79L444.211 363.067C428.348 372.511 428.371 383.848 442.549 395.001L443.657 395.856C440.318 398.24 437.426 401.195 435.114 404.584C427.794 414.305 435.668 425.366 442.549 432.87L443.265 433.655L442.757 434.671C440.106 440.14 439.7 446.429 441.624 452.193C443.548 457.958 447.651 462.741 453.055 465.521C481.572 482.7 532.557 477.944 565.415 476.05C591.97 477.997 618.614 478.421 645.217 477.32C654.061 476.928 662.882 476.212 671.703 475.311C662.943 476.651 654.138 477.667 645.287 478.359C618.797 480.299 592.208 480.5 565.692 478.96C552.854 480.083 540.008 480.807 527.154 481.13C507.873 481.384 488.084 481.5 469.427 476.073C449.084 470.462 429.78 456.423 440.24 433.078L440.448 434.856C435.298 429.014 430.472 422.549 429.572 414.49C429.341 406.154 435.183 399.643 441.348 394.909V396.641C438.505 394.361 435.995 391.695 433.89 388.721C425.6 377.706 433.451 367.616 443.819 362.143L443.657 362.882C440.878 359.672 439.414 355.53 439.56 351.286C439.706 347.043 441.449 343.011 444.442 339.999L444.35 340.068Z" fill="#263238"/>
<path d="M266.643 448.48C264.657 451.412 80.969 473.21 72.0097 471.34C71.5712 471.242 71.1452 471.095 70.7397 470.901C59.5407 466.629 5.90061 424.165 1.83662 420.586C-8.16173 411.719 25.3893 341.777 36.8424 329.77C44.4623 321.78 59.3559 317.786 59.3559 317.786C59.3559 317.786 94.6388 210.09 119.069 182.358C125.188 175.43 239.28 164.485 260.385 172.29C269.413 175.638 290.657 177.208 291.511 181.065C292.481 186.745 268.675 445.478 266.643 448.48Z" fill="#37474F"/>
<path d="M266.643 448.48C264.657 451.412 80.969 473.21 72.0098 471.34C71.5712 471.242 71.1452 471.095 70.7397 470.901C84.8944 421.879 151.558 191.732 153.705 190.116C155.853 188.5 265.234 181.134 291.511 181.111C292.481 186.745 268.675 445.478 266.643 448.48Z" fill="#263238"/>
<path d="M177.743 180.349C175.757 178.755 173.009 164.439 176.011 159.221C179.405 153.356 223.44 152.894 226.372 157.466C229.305 162.038 232.076 176.331 230.829 177.324C229.582 178.317 222.331 179.633 221.223 178.201C220.115 176.77 218.914 166.656 218.106 165.571C217.297 164.485 186.425 164.809 185.478 166.448C184.532 168.087 188.365 178.201 187.187 179.194C186.009 180.187 179.659 181.919 177.743 180.349Z" fill="#37474F"/>
<path d="M294.652 207.827C333.491 260.936 431.765 470.047 439.732 485.772C450.215 506.553 339.471 536.849 333.814 521.909C330.142 512.188 314.14 455.084 301.787 406.454C285.923 344.109 267.889 282.849 259.692 225.076C253.365 180.487 276.433 182.866 294.652 207.827Z" fill="#F7A9A0"/>
<path d="M372.376 554.883C367.757 550.264 365.217 552.573 366.534 564.257C367.85 575.941 382.905 621.107 366.718 625.032C350.532 628.958 330.166 564.996 329.496 545.323C328.826 525.649 334.599 493.715 334.599 493.715C341.041 505.376 359.422 532.161 372.376 554.883Z" fill="#F7A9A0"/>
<path d="M423.914 454.645C442.087 488.473 465.339 530.083 462.684 572.409C462.499 577.117 460.743 581.629 457.696 585.224C456.842 604.205 447.606 609.492 447.606 609.492C441.394 626.949 431.234 631.059 431.234 631.059C431.234 631.059 429.987 653.342 416.387 654.82C401.147 656.529 405.88 624.802 397.914 605.913C379.441 562.433 341.203 505.745 334.668 493.738L423.914 454.645Z" fill="#F7A9A0"/>
<path d="M410.614 546.778C415.763 559.685 421.167 572.178 424.469 585.755C428.186 600.626 429.248 615.542 430.749 630.69C430.735 630.744 430.734 630.801 430.746 630.857C430.757 630.912 430.781 630.963 430.815 631.008C430.85 631.052 430.894 631.088 430.945 631.113C430.995 631.138 431.051 631.151 431.107 631.151C431.164 631.151 431.219 631.138 431.27 631.113C431.32 631.088 431.365 631.052 431.399 631.008C431.434 630.963 431.458 630.912 431.469 630.857C431.48 630.801 431.479 630.744 431.465 630.69C433.151 602.842 424.861 570.769 411.099 546.547C410.868 545.946 410.36 546.131 410.614 546.778Z" fill="#263238"/>
<path d="M435.252 531.838C439.57 544.699 447.028 567.305 447.167 609.492C447.178 609.517 447.195 609.538 447.218 609.553C447.241 609.568 447.267 609.576 447.294 609.576C447.321 609.576 447.347 609.568 447.37 609.553C447.392 609.538 447.41 609.517 447.421 609.492C450.885 582.97 446.887 556.006 435.875 531.63C435.529 530.868 434.929 531.007 435.252 531.838Z" fill="#263238"/>
<path d="M448.645 524.079C455.156 546.177 456.473 561.025 457.604 585.108C457.615 585.133 457.633 585.154 457.655 585.169C457.678 585.184 457.704 585.192 457.731 585.192C457.758 585.192 457.784 585.184 457.807 585.169C457.83 585.154 457.847 585.133 457.858 585.108C459.451 557.538 456.911 547.355 449.361 523.756C449.107 522.948 448.391 523.248 448.645 524.079Z" fill="#263238"/>
<path d="M323.469 509.948L439.986 470.693C439.986 470.693 318.643 238.653 302.41 215.331C281.421 185.175 252.257 170.12 258.538 220.573C267.751 292.339 323.469 509.948 323.469 509.948Z" fill="#F5951F"/>
<path d="M418.996 453.121C413.039 455.43 406.85 457.439 400.754 459.471C394.658 461.503 388.539 463.512 382.397 465.405C370.09 469.215 357.805 472.979 345.452 476.558C342.08 477.528 338.686 478.498 335.292 479.422C331.897 480.345 327.903 480.946 324.277 481.962C324.231 481.946 324.191 481.917 324.162 481.878C324.134 481.838 324.119 481.791 324.119 481.742C324.119 481.694 324.134 481.646 324.162 481.607C324.191 481.567 324.231 481.538 324.277 481.523C327.256 480.53 330.142 479.214 333.121 478.059C336.1 476.905 339.333 475.958 342.358 474.942C348.515 472.987 354.673 471.047 360.83 469.123C373.091 465.29 385.422 461.526 397.776 458.109C404.703 456.169 411.792 453.998 418.881 452.498C418.955 452.499 419.027 452.526 419.085 452.574C419.142 452.622 419.18 452.688 419.194 452.762C419.208 452.835 419.195 452.911 419.159 452.977C419.123 453.042 419.066 453.093 418.996 453.121Z" fill="#263238"/>
<path opacity="0.1" d="M415.532 478.96L323.446 509.948C323.446 509.948 267.774 292.339 258.653 220.619C254.959 191.409 263.271 184.159 274.817 189.077C301.464 243.387 385.353 414.536 415.532 478.96Z" fill="black"/>
<path d="M168.46 413.52L169.107 415.829C169.107 416.13 169.268 416.43 169.338 416.776V417.053C169.431 417.333 169.508 417.618 169.569 417.908C169.8 418.785 170.054 419.801 170.377 420.909C170.515 421.487 170.677 422.087 170.816 422.734C172.224 428.114 174.21 435.664 176.657 445.039C176.935 446.148 177.212 447.348 177.512 448.411C177.595 448.653 177.664 448.9 177.72 449.149C179.636 456.539 181.807 464.874 184.208 474.041C184.716 475.935 185.224 477.875 185.709 479.837C187.741 487.711 189.935 496.116 192.244 504.983C192.405 505.514 192.544 506.045 192.683 506.6C196.862 522.763 201.434 540.405 206.26 558.97C220.415 613.649 236.694 676.456 251.449 733.952C251.957 735.892 252.442 737.831 252.95 739.771C253.158 740.464 253.319 741.18 253.481 741.895C253.92 743.581 254.358 745.267 254.751 746.929C255.005 747.853 255.236 748.8 255.49 749.746C255.882 751.224 256.275 752.725 256.644 754.203C258.168 760.114 259.669 765.979 261.262 771.752C261.586 773.045 261.886 774.292 262.232 775.539C263.364 780.018 264.541 784.406 265.627 788.747H449.361C429.295 717.165 402.717 628.912 380.365 555.922C355.727 475.288 336.192 413.336 336.192 413.336L168.46 413.52Z" fill="#37474F"/>
<path opacity="0.1" d="M332.128 413.543C320.583 503.598 278.373 653.226 262.186 775.723C224.363 627.295 168.46 413.543 168.46 413.543H332.128Z" fill="black"/>
<path d="M189.311 413.543C225.148 537.31 258.376 663.271 288.209 788.608C252.349 664.864 219.168 538.881 189.311 413.543Z" fill="#263238"/>
<path d="M72.8179 788.931H259.623L278.465 581.322C288.533 576.703 304.95 568.968 304.95 568.968C304.95 568.968 316.496 508.47 323.423 466.283C327.764 440.121 331.32 418.369 332.013 414.282C332.013 414.005 332.013 413.82 332.013 413.705H114.959C114.959 413.705 93.8537 505.514 92.0295 536.733C91.4292 546.755 94.7312 576.796 94.7312 576.796L72.8179 788.931Z" fill="#37474F"/>
<path d="M130.36 517.752C132.531 517.037 169.869 520.062 187.787 504.66C204.159 490.575 212.24 447.903 212.564 447.856C212.686 447.836 212.811 447.854 212.923 447.908C213.035 447.961 213.127 448.048 213.187 448.157C213.718 449.103 212.656 482.793 193.006 506.299C179.151 522.809 135.002 520.339 130.268 519.184C129.437 518.999 129.737 517.96 130.36 517.752Z" fill="#263238"/>
<path d="M357.297 498.102C355.519 496.647 347.045 495.377 338.825 479.26C335.71 472.901 333.384 466.186 331.897 459.263C330.951 455.13 327.88 434.972 327.626 434.879C327.372 434.787 327.418 434.879 327.395 435.156C327.798 443.374 328.615 451.566 329.842 459.702C330.942 467.731 333.336 475.529 336.931 482.793C344.874 496.809 355.565 500.411 357.413 499.464C357.69 499.28 357.551 498.31 357.297 498.102Z" fill="#263238"/>
<path d="M309.915 565.828C289.402 573.29 269.577 582.523 250.664 593.421C250.501 593.495 250.375 593.63 250.312 593.796C250.249 593.963 250.255 594.148 250.329 594.31C250.402 594.472 250.537 594.599 250.704 594.662C250.871 594.724 251.056 594.718 251.218 594.645C271.168 586.055 291.511 577.858 310.977 568.206C311.292 568.065 311.539 567.805 311.662 567.482C311.786 567.159 311.776 566.801 311.635 566.486C311.494 566.17 311.234 565.924 310.911 565.8C310.589 565.677 310.23 565.687 309.915 565.828Z" fill="#263238"/>
<path d="M316.265 428.853C316.265 428.16 314.995 428.021 314.995 428.853C315.157 452.544 313.633 473.395 311.647 495.539C310.723 505.814 302.41 562.641 284.63 558.508C281.629 557.815 280.012 554.882 279.643 550.38C279.089 544.953 281.121 538.326 281.952 532.946C283.938 521.054 285.531 509.116 286.57 497.109C288.653 474.739 288.413 452.213 285.854 429.892C285.854 429.739 285.793 429.592 285.685 429.483C285.577 429.375 285.43 429.314 285.277 429.314C285.124 429.314 284.977 429.375 284.869 429.483C284.76 429.592 284.7 429.739 284.7 429.892C284.7 460.926 283.915 491.914 279.273 522.671C276.964 537.449 269.598 559.616 285.046 561.925C300.494 564.234 310.977 526.966 312.894 516.783C318.297 488.358 318.505 457.647 316.265 428.853Z" fill="#263238"/>
<path d="M285.092 559.939C283.499 563.773 282.157 567.707 281.074 571.716C279.93 574.811 279.367 578.091 279.412 581.391C279.412 582.014 280.312 582.084 280.659 581.668C282.496 578.75 283.889 575.575 284.792 572.247C286.154 568.598 287.586 564.973 288.833 561.302C289.014 560.806 288.99 560.258 288.767 559.78C288.544 559.301 288.14 558.931 287.644 558.75C287.148 558.57 286.6 558.593 286.122 558.816C285.643 559.039 285.273 559.443 285.092 559.939Z" fill="#263238"/>
<path d="M128.929 415.991C126.62 431.877 115.767 506.045 114.012 520.061C113.111 526.989 112.072 534.031 111.703 540.728C111.865 554.582 114.428 568.691 116.621 582.291C108.355 648.955 98.6566 722.13 88.3581 788.516C94.8235 722.869 103.806 645.63 112.188 582.73C110.087 568.645 107.708 554.906 107.57 540.543C107.754 537.103 108.239 533.293 108.678 529.875C114.174 491.891 121.378 453.514 128.883 415.899L128.929 415.991Z" fill="#263238"/>
<path d="M362.285 488.612L96.1628 491.406C95.5624 490.782 96.5553 480.53 97.0171 476.443C97.0171 475.681 83.5551 464.297 85.7257 452.475C98.3564 383.202 154.444 239.392 191.944 189.539C210.786 164.531 261.447 166.448 280.451 198.614C306.682 243.156 351.294 381.632 366.441 451.736C368.219 459.91 359.514 474.619 359.514 477.136L362.285 488.612Z" fill="#F5951F"/>
<path opacity="0.1" d="M259.946 457.785C286.939 456.654 313.748 455.476 340.579 454.691L339.217 456.446L329.727 415.344L330.697 416.453C325.628 414.344 321.156 411.022 317.673 406.778C314.298 402.601 311.587 397.927 309.638 392.923C307.645 388.031 306.099 382.969 305.02 377.799C303.878 372.65 303.106 367.425 302.71 362.166L304.258 363.575L240.665 365.376L241.935 364.221L240.319 374.173C239.719 377.475 238.726 380.731 238.01 384.01C237.294 387.289 235.701 390.406 234.708 393.593L232.399 398.211C232.029 398.973 231.683 399.735 231.267 400.52L229.905 402.668C226.452 408.618 221.511 413.568 215.566 417.03C209.578 420.467 202.608 421.792 195.777 420.794L196.469 420.424L178.412 461.249L259.946 457.785ZM195.292 419.893L195.477 419.455H196.008C202.505 420.176 209.061 418.765 214.688 415.437C220.289 412.065 224.914 407.289 228.104 401.582L229.397 399.504C229.766 398.788 230.09 398.026 230.459 397.195L232.514 392.738C233.576 389.621 234.823 386.527 235.608 383.364C236.394 380.2 237.202 376.944 237.756 373.689L239.188 363.875L239.349 362.743H240.458L304.05 360.55H305.504L305.62 362.028C306.023 367.118 306.795 372.173 307.929 377.152C309.012 382.149 310.558 387.035 312.547 391.746C314.412 396.426 316.957 400.806 320.098 404.746C323.208 408.587 327.212 411.607 331.759 413.543L332.544 413.843L332.729 414.652L341.965 455.8L342.358 457.531H340.603C313.355 458.386 286.085 458.94 258.976 459.494L178.32 461.157L195.292 419.893Z" fill="black"/>
<path opacity="0.1" d="M350.67 475.011C273.962 477.182 188.665 477.851 111.888 476.974C188.665 474.85 273.939 474.111 350.67 475.011Z" fill="black"/>
<path d="M264.518 214.731C250.34 222.928 221.662 203.994 210.07 185.498C209.285 184.228 208.153 132.158 207.553 121.652C207.415 119.504 274.332 133.798 274.332 133.798C274.332 133.798 269.159 156.196 270.337 174.484C270.44 175.925 270.672 177.355 271.03 178.755C271.094 178.99 271.14 179.23 271.168 179.471C272.993 187.576 271.769 210.528 264.518 214.731Z" fill="#F7A9A0"/>
<path d="M271.168 179.471C268.946 179.91 266.69 180.157 264.426 180.21C229.79 181.48 214.965 139.94 210.07 121.559C222.262 122.668 274.355 133.774 274.355 133.774C274.355 133.774 269.136 156.103 270.36 174.576C270.433 176.012 270.658 177.436 271.03 178.825C271.092 179.036 271.139 179.253 271.168 179.471Z" fill="#263238"/>
<path d="M190.812 92.1647C190.812 92.1647 149.249 136.661 156.176 144.604C163.103 152.547 224.04 140.702 237.34 130.08C250.641 119.458 274.955 76.2782 274.955 76.2782L190.812 92.1647Z" fill="#F5951F"/>
<g opacity="0.1">
<path d="M190.812 92.1647C190.812 92.1647 149.249 136.661 156.176 144.604C163.103 152.547 224.04 140.702 237.34 130.08C250.641 119.458 274.955 76.2782 274.955 76.2782L190.812 92.1647Z" fill="black"/>
</g>
<path d="M196.816 40.3258C189.404 63.6245 200.949 131.327 217.39 146.544C241.243 168.665 280.705 171.251 299.593 142.48C317.927 114.609 301.325 26.6329 282.922 12.7091C255.79 -7.72631 207.784 6.01275 196.816 40.3258Z" fill="#F7A9A0"/>
<path d="M252.95 83.321C252.95 83.1593 252.65 83.5981 252.673 83.7828C253.573 88.401 253.85 93.6888 249.971 95.8824C249.832 95.8824 249.971 96.1826 249.971 96.1364C254.959 94.5893 254.543 87.4773 252.95 83.321Z" fill="#263238"/>
<path d="M248.101 79.2339C240.665 79.8804 242.513 94.7048 249.417 94.1044C256.321 93.504 254.335 78.6797 248.101 79.2339Z" fill="#263238"/>
<path d="M281.605 78.8183C281.605 78.6335 281.998 78.9799 281.998 79.1646C282.437 83.7828 283.707 88.9782 288.048 89.9942C288.186 89.9942 288.209 90.2482 288.048 90.2482C282.875 90.179 281.259 83.2517 281.605 78.8183Z" fill="#263238"/>
<path d="M285.092 73.5074C292.412 72.0064 294.837 86.7384 288.071 88.1239C281.305 89.5093 278.973 74.7543 285.092 73.5074Z" fill="#263238"/>
<path d="M242.767 70.875C244.77 70.4887 246.751 69.9954 248.701 69.3972C250.872 69.1552 252.906 68.2153 254.497 66.7186C254.895 66.1467 255.095 65.4598 255.066 64.7633C255.037 64.0668 254.78 63.3991 254.335 62.8625C253.294 61.9347 252.023 61.302 250.655 61.03C249.287 60.758 247.871 60.8565 246.554 61.3154C243.742 61.8374 241.224 63.3843 239.488 65.6565C239.124 66.1978 238.924 66.8333 238.914 67.4857C238.904 68.1381 239.083 68.7795 239.43 69.3319C239.777 69.8844 240.277 70.3243 240.87 70.5982C241.462 70.8721 242.121 70.9682 242.767 70.875Z" fill="#263238"/>
<path d="M291.003 63.8554C288.959 63.7335 286.924 63.4945 284.907 63.1396C282.727 63.1865 280.593 62.5129 278.835 61.223C278.36 60.7131 278.068 60.0597 278.005 59.3657C277.943 58.6718 278.112 57.9767 278.488 57.3899C279.4 56.3374 280.577 55.5487 281.897 55.106C283.216 54.6633 284.631 54.5829 285.993 54.873C288.848 55.0204 291.546 56.2216 293.567 58.2443C294.001 58.7328 294.284 59.337 294.381 59.9834C294.478 60.6298 294.385 61.2906 294.114 61.8851C293.842 62.4797 293.403 62.9825 292.851 63.3323C292.299 63.6821 291.657 63.8638 291.003 63.8554Z" fill="#263238"/>
<path d="M257.129 126.409C258.353 127.355 259.646 128.718 261.309 128.718C263.018 128.474 264.655 127.868 266.111 126.94C266.141 126.921 266.176 126.913 266.211 126.916C266.246 126.919 266.279 126.933 266.305 126.957C266.331 126.98 266.349 127.011 266.356 127.046C266.362 127.08 266.358 127.116 266.342 127.147C265.798 128.133 264.999 128.953 264.027 129.522C263.056 130.091 261.949 130.387 260.824 130.38C259.857 130.249 258.951 129.835 258.22 129.19C257.489 128.544 256.964 127.697 256.714 126.755C256.667 126.408 257.129 126.27 257.129 126.409Z" fill="#263238"/>
<path d="M259.3 111.145C260.695 112.814 262.421 114.176 264.368 115.146C266.315 116.115 268.442 116.672 270.614 116.78C272.504 116.911 274.402 116.763 276.248 116.341C276.61 116.294 276.967 116.209 277.311 116.087L278.303 115.81C278.54 115.726 278.744 115.569 278.886 115.361C279.027 115.154 279.098 114.906 279.089 114.655C279.102 114.494 279.102 114.332 279.089 114.17V113.778C278.742 110.222 277.726 104.888 277.726 104.888C279.089 105.373 286.039 107.52 285.716 105.673C282.875 90.5023 279.735 73.6459 273.708 59.1449C273.681 59.0377 273.612 58.9458 273.517 58.8895C273.421 58.8333 273.308 58.8171 273.2 58.8447C273.093 58.8723 273.001 58.9412 272.945 59.0365C272.889 59.1318 272.873 59.2455 272.9 59.3527C275.048 74.0385 279.827 88.2625 282.137 102.971C279.654 102.182 277.074 101.739 274.47 101.655C273.985 101.863 276.618 111.931 276.664 113.547C276.67 113.601 276.67 113.655 276.664 113.709C270.822 115.209 266.135 113.986 259.854 110.73C259.3 110.453 258.976 110.799 259.3 111.145Z" fill="#263238"/>
<path d="M275.094 114.378C273.598 117.253 271.388 119.695 268.675 121.467C267.161 122.404 265.394 122.848 263.618 122.737C259.738 122.46 259 119.089 259.161 116.064C259.255 114.452 259.534 112.856 259.992 111.307C264.569 113.918 269.861 114.994 275.094 114.378Z" fill="#263238"/>
<path d="M268.675 121.467C267.161 122.404 265.394 122.848 263.618 122.737C259.738 122.46 259 119.089 259.161 116.064C263.225 115.81 267.636 117.773 268.675 121.467Z" fill="#FF98B9"/>
<path d="M198.686 112.415C211.571 107.289 213.811 62.1004 213.811 62.1004C213.811 62.1004 215.612 80.9888 219.099 80.1806C222.585 79.3724 234.5 52.1945 234.269 33.7218C245.417 39.5657 257.277 43.9357 269.552 46.7219C286.87 50.0239 303.103 52.1945 302.803 49.3312C301.949 40.8338 291.465 17.7198 279.089 11.0004C264.888 3.28804 247.131 -3.40832 220.738 9.89202C194.345 23.1924 189.519 37.9012 186.841 52.0097C184.162 66.1183 193.953 114.309 198.686 112.415Z" fill="#263238"/>
<path d="M272.993 4.69659C248.816 -6.50248 197.555 0.909693 188.341 42.404C182.245 69.8821 190.096 96.4597 190.096 96.4597C190.096 96.4597 219.791 66.0259 231.66 59.8607C261.678 44.2282 303.242 46.0061 303.242 46.0061C303.242 46.0061 294.721 14.7411 272.993 4.69659ZM236.047 48.5692C235.585 41.642 237.479 31.1356 252.534 27.4642C269.875 23.2616 274.817 39.356 274.817 39.356C261.509 40.3003 248.444 43.4124 236.14 48.5692H236.047Z" fill="#F5951F"/>
<path d="M214.896 93.758C214.896 93.758 199.864 71.7524 189.889 77.0633C179.913 82.3742 191.043 114.217 202.635 118.627C204.082 119.304 205.651 119.68 207.247 119.734C208.844 119.787 210.435 119.517 211.924 118.938C213.413 118.36 214.769 117.486 215.911 116.369C217.053 115.251 217.957 113.915 218.567 112.439L214.896 93.758Z" fill="#F7A9A0"/>
<path d="M193.306 86.1611C193.276 86.1731 193.25 86.1938 193.232 86.2206C193.214 86.2473 193.204 86.2789 193.204 86.3112C193.204 86.3435 193.214 86.3751 193.232 86.4019C193.25 86.4286 193.276 86.4493 193.306 86.4613C201.434 89.8556 205.637 97.4756 208.569 105.373C206.26 102.325 202.889 100.616 198.802 103.456C198.594 103.618 198.802 103.941 199.033 103.895C200.47 103.457 202.007 103.475 203.434 103.947C204.86 104.418 206.105 105.32 206.999 106.527C208.492 108.559 209.754 110.751 210.763 113.062C211.132 113.801 212.471 113.431 212.194 112.577V112.392C212.379 101.978 204.459 87.3388 193.306 86.1611Z" fill="#263238"/>
<path d="M172.432 198.175C102.744 271.65 44.2315 381.863 52.3594 441.76C60.4643 500.896 80.207 492.145 85.9797 490.898C121.309 483.324 177.72 314.691 193.722 244.01C208.384 179.517 189.658 180.002 172.432 198.175Z" fill="#F5951F"/>
<path d="M126.689 437.812C129.737 429.753 132.9 421.787 135.81 413.682L144.815 389.552C150.726 373.388 156.776 357.225 162.434 341.061C168.091 324.898 173.979 308.734 179.59 292.57C182.384 284.465 185.109 276.407 187.672 268.117C190.235 259.827 192.798 251.746 195.223 243.479C191.965 260.388 187.764 277.101 182.638 293.54C177.697 310.05 172.039 326.306 166.359 342.539C160.679 358.772 154.352 374.866 147.886 390.706C141.421 406.547 134.424 422.433 126.689 437.812Z" fill="#263238"/>
<path d="M189.796 264.492C190.869 261.609 192.119 258.794 193.537 256.064C194.253 254.724 194.899 253.362 195.684 252.046C196.469 250.73 197.139 249.367 197.993 248.051C197.728 251.187 196.825 254.236 195.338 257.01C193.968 259.824 192.089 262.361 189.796 264.492Z" fill="#263238"/>
<path d="M158.97 212.976C163.981 208.358 172.432 198.175 185.686 187.576C179.581 189.943 174.155 193.782 169.892 198.752C165.913 203.224 162.263 207.978 158.97 212.976Z" fill="#263238"/>
<path d="M180.329 191.248C177.373 187.669 196.493 177.139 201.411 181.134C206.329 185.129 238.91 236.436 230.782 303.515C222.654 370.594 95.8164 435.849 90.898 425.897C88.843 421.671 91.4753 409.918 94.7311 406.154C99.3493 400.82 188.965 349.743 198.478 308.087C206.953 271.05 187.857 200.345 180.329 191.248Z" fill="#455A64"/>
<path d="M77.8055 491.221C104.591 488.404 131.931 460.348 200.672 378.63C210.185 367.315 148.44 278.739 137.657 290.284C124.08 304.832 74.5728 364.175 71.5017 369.047C45.5707 409.549 59.633 493.23 77.8055 491.221Z" fill="#F7A9A0"/>
<path d="M115.028 327.23C115.028 327.23 130.661 287.975 145.254 269.78C164.812 245.511 191.69 232.626 203.281 227.893C227.48 218.033 292.781 210.921 298.115 229.371C302.941 246.065 235.77 249.968 235.77 249.968C235.77 249.968 303.611 234.612 305.62 255.879C307.629 277.146 229.559 277.169 229.559 277.169C229.559 277.169 299.57 263.037 298.277 285.227C297.33 301.991 226.511 306.009 226.511 306.009C226.511 306.009 286.755 294.279 286.547 311.574C286.27 330.67 221.131 338.544 221.131 338.544C213.118 382.417 190.42 399.735 173.471 410.403C169.384 413.035 115.028 327.23 115.028 327.23Z" fill="#F7A9A0"/>
<path d="M212.033 253.755C219.93 251.676 227.919 249.506 235.978 248.143C244.037 246.781 252.142 245.673 260.293 245.049C270.926 244.039 281.641 244.248 292.227 245.673C273.247 244.518 244.337 248.975 236.278 250.291C228.219 251.607 220.115 252.6 212.079 253.985C211.871 254.101 211.848 253.801 212.033 253.755Z" fill="#263238"/>
<path d="M216.466 282.941C226.672 280.632 236.717 278.139 247.015 276.361C257.314 274.583 267.151 273.821 277.495 272.758C278.28 272.758 278.073 273.128 277.264 273.243C266.966 274.721 257.568 276.869 247.246 278.462C236.925 280.055 226.626 281.233 216.466 283.08C216.452 283.099 216.431 283.114 216.408 283.121C216.385 283.128 216.36 283.128 216.337 283.12C216.314 283.113 216.294 283.098 216.28 283.078C216.266 283.059 216.258 283.035 216.258 283.011C216.258 282.987 216.266 282.963 216.28 282.943C216.294 282.924 216.314 282.909 216.337 282.901C216.36 282.894 216.385 282.893 216.408 282.901C216.431 282.908 216.452 282.922 216.466 282.941Z" fill="#263238"/>
<path d="M215.773 308.665C231.175 304.462 247.362 303.123 263.248 302.176C264.033 302.176 263.687 302.684 262.879 302.776C247.062 304.647 234.639 305.986 215.912 309.196C215.566 309.242 215.566 308.757 215.773 308.665Z" fill="#263238"/>
<path d="M111.657 313.929L174.21 426.082C174.21 426.082 99.6033 503.736 74.1803 491.244C52.0593 480.368 48.3185 409.41 63.9511 377.499C70.555 364.175 111.657 313.929 111.657 313.929Z" fill="#F5951F"/>
<path d="M113.827 317.739L111.518 314.091H111.865C105.191 322.981 98.4488 331.802 91.891 340.738C85.3332 349.674 78.683 358.564 72.587 367.777C69.4738 372.296 66.651 377.009 64.1357 381.886C61.8463 386.831 59.9771 391.96 58.5478 397.218C55.7296 407.914 54.6306 418.989 55.2919 430.03C53.4592 418.951 53.7807 407.622 56.2387 396.664C57.4648 391.15 59.2842 385.784 61.665 380.662C64.1373 375.603 66.9532 370.719 70.0932 366.045C76.3277 356.809 83.0471 347.896 89.9282 339.168C96.8093 330.439 104.083 321.988 111.611 313.768L111.818 313.514L111.957 313.791L113.827 317.739Z" fill="#263238"/>
<path d="M99.6726 348.543C103.159 353.946 106.184 359.672 109.325 365.283C112.465 370.895 115.582 376.529 118.561 382.209C124.588 393.57 130.568 404.954 136.41 416.43C138.003 419.57 139.597 422.71 141.028 425.874C142.46 429.037 143.915 432.801 145.646 436.219C145.671 436.244 145.69 436.275 145.7 436.31C145.711 436.344 145.713 436.38 145.708 436.415C145.702 436.45 145.688 436.484 145.667 436.513C145.647 436.542 145.619 436.566 145.588 436.582C145.556 436.599 145.521 436.608 145.486 436.609C145.45 436.61 145.414 436.603 145.382 436.588C145.35 436.572 145.321 436.55 145.299 436.522C145.277 436.494 145.261 436.461 145.254 436.426C143.707 433.679 141.79 431.116 140.197 428.391C138.604 425.666 136.964 422.687 135.394 419.801C132.323 414.144 129.252 408.486 126.158 402.806C120.108 391.468 114.081 380.085 108.401 368.539C105.214 362.028 101.774 355.539 98.9568 348.843C98.917 348.748 98.9165 348.641 98.9555 348.546C98.9944 348.45 99.0697 348.375 99.1646 348.335C99.2595 348.295 99.3664 348.295 99.4616 348.333C99.5569 348.372 99.6328 348.448 99.6726 348.543Z" fill="#263238"/>
<path d="M168.83 415.991C170.885 419.339 172.871 422.757 174.88 426.128L174.649 426.405C157.761 445.152 138.789 461.909 118.099 476.35C111.169 481.138 103.792 485.245 96.0704 488.612C125.234 472.079 149.734 448.688 173.956 425.828V426.359C172.27 422.941 170.538 419.431 168.899 416.06L168.83 415.991Z" fill="#263238"/>
</svg>
